M48
; DRILL file {KiCad 7.0.10} date Sat Feb 14 23:10:41 2026
; FORMAT={-:-/ absolute / inch / decimal}
; #@! TF.CreationDate,2026-02-14T23:10:41-08:00
; #@! TF.GenerationSoftware,Kicad,Pcbnew,7.0.10
; #@! TF.FileFunction,Plated,1,2,PTH
FMAT,2
INCH
; #@! TA.AperFunction,Plated,PTH,ViaDrill
T1C0.0157
; #@! TA.AperFunction,Plated,PTH,ComponentDrill
T2C0.0394
; #@! TA.AperFunction,Plated,PTH,ComponentDrill
T3C0.0787
%
G90
G05
T1
X1.3878Y-1.8996
X1.5872Y-1.7736
X1.6634Y-2.4114
X1.7031Y-2.8109
X1.7828Y-1.7126
X1.7942Y-1.5777
X1.9038Y-1.6608
X1.9121Y-1.7004
X1.984Y-3.0959
X2.0024Y-1.6361
X2.0573Y-3.059
X2.3022Y-2.4114
X2.4003Y-1.9116
X2.5142Y-3.1186
X2.6179Y-2.0012
X2.6782Y-2.2378
X2.7693Y-3.2551
X2.8026Y-2.1068
X2.8531Y-1.5777
X2.9831Y-2.8096
X3.0618Y-2.6599
X3.125Y-1.7749
X3.1602Y-1.6103
X3.2245Y-3.2328
X3.3335Y-3.109
X3.5696Y-3.2015
X3.8139Y-2.984
T2
X1.5138Y-1.9941
X1.5138Y-2.0925
X1.5138Y-2.1909
X2.0847Y-1.9941
X2.0847Y-2.1909
T3
G00X1.7874Y-1.872
M15
G01X1.8308Y-1.872
M16
G05
G00X1.7874Y-2.313
M15
G01X1.8308Y-2.313
M16
G05
M30
