%TF.GenerationSoftware,KiCad,Pcbnew,7.0.10*%
%TF.CreationDate,2026-02-06T21:47:14-08:00*%
%TF.ProjectId,4kemp,346b656d-702e-46b6-9963-61645f706362,rev?*%
%TF.SameCoordinates,Original*%
%TF.FileFunction,Copper,L1,Top*%
%TF.FilePolarity,Positive*%
%FSLAX46Y46*%
G04 Gerber Fmt 4.6, Leading zero omitted, Abs format (unit mm)*
G04 Created by KiCad (PCBNEW 7.0.10) date 2026-02-06 21:47:14*
%MOMM*%
%LPD*%
G01*
G04 APERTURE LIST*
G04 Aperture macros list*
%AMRoundRect*
0 Rectangle with rounded corners*
0 $1 Rounding radius*
0 $2 $3 $4 $5 $6 $7 $8 $9 X,Y pos of 4 corners*
0 Add a 4 corners polygon primitive as box body*
4,1,4,$2,$3,$4,$5,$6,$7,$8,$9,$2,$3,0*
0 Add four circle primitives for the rounded corners*
1,1,$1+$1,$2,$3*
1,1,$1+$1,$4,$5*
1,1,$1+$1,$6,$7*
1,1,$1+$1,$8,$9*
0 Add four rect primitives between the rounded corners*
20,1,$1+$1,$2,$3,$4,$5,0*
20,1,$1+$1,$4,$5,$6,$7,0*
20,1,$1+$1,$6,$7,$8,$9,0*
20,1,$1+$1,$8,$9,$2,$3,0*%
G04 Aperture macros list end*
%TA.AperFunction,ComponentPad*%
%ADD10RoundRect,0.250000X-0.550000X-0.550000X0.550000X-0.550000X0.550000X0.550000X-0.550000X0.550000X0*%
%TD*%
%TA.AperFunction,ComponentPad*%
%ADD11C,1.600000*%
%TD*%
%TA.AperFunction,ComponentPad*%
%ADD12O,4.100000X3.000000*%
%TD*%
%TA.AperFunction,ViaPad*%
%ADD13C,0.800000*%
%TD*%
%TA.AperFunction,Conductor*%
%ADD14C,0.250000*%
%TD*%
G04 APERTURE END LIST*
D10*
%TO.P,SW5,A,A*%
%TO.N,/A*%
X38451100Y-50649300D03*
D11*
%TO.P,SW5,B,B*%
%TO.N,/B*%
X38451100Y-55649300D03*
%TO.P,SW5,C,C*%
%TO.N,GND*%
X38451100Y-53149300D03*
%TO.P,SW5,S1,S1*%
%TO.N,/Column2*%
X52951100Y-50649300D03*
%TO.P,SW5,S2,S2*%
%TO.N,Net-(D5-A)*%
X52951100Y-55649300D03*
D12*
%TO.P,SW5,SH,SHIELD*%
%TO.N,GND*%
X45951100Y-47549300D03*
X45951100Y-58749300D03*
%TD*%
D13*
%TO.N,/NP2DATA*%
X54857200Y-58324000D03*
X91255700Y-64635500D03*
%TO.N,Net-(LED1-DIN)*%
X71612600Y-81953000D03*
X47245800Y-83488700D03*
%TO.N,/B*%
X70949900Y-56788400D03*
%TO.N,/A*%
X61260000Y-52761800D03*
%TO.N,/Column1*%
X68535800Y-51281600D03*
X48822400Y-51805400D03*
%TO.N,/Column0*%
X78485900Y-57806700D03*
X76302200Y-63633300D03*
X40437200Y-64589900D03*
%TO.N,+5V*%
X87094000Y-84264800D03*
X79208700Y-84264800D03*
%TO.N,GND*%
X54731200Y-48553400D03*
%TO.N,/NPDATA*%
X36835600Y-44264500D03*
X51094200Y-44264500D03*
%TO.N,Net-(D4-A)*%
X51940000Y-47002700D03*
X74955000Y-47002700D03*
%TD*%
D14*
%TO.N,/NP2DATA*%
X61168700Y-64635500D02*
X91255700Y-64635500D01*
X54857200Y-58324000D02*
X61168700Y-64635500D01*
%TO.N,Net-(LED1-DIN)*%
X70076900Y-83488700D02*
X71612600Y-81953000D01*
X47245800Y-83488700D02*
X70076900Y-83488700D01*
%TO.N,/B*%
X39590200Y-56788400D02*
X70949900Y-56788400D01*
X38451100Y-55649300D02*
X39590200Y-56788400D01*
%TO.N,/A*%
X40563600Y-52761800D02*
X61260000Y-52761800D01*
X38451100Y-50649300D02*
X40563600Y-52761800D01*
%TO.N,/Column1*%
X68012000Y-51805400D02*
X48822400Y-51805400D01*
X68535800Y-51281600D02*
X68012000Y-51805400D01*
%TO.N,/Column0*%
X73903100Y-57591300D02*
X76302200Y-59990400D01*
X54486600Y-57591300D02*
X73903100Y-57591300D01*
X49943400Y-62134500D02*
X54486600Y-57591300D01*
X42892600Y-62134500D02*
X49943400Y-62134500D01*
X40437200Y-64589900D02*
X42892600Y-62134500D01*
X78485900Y-57806700D02*
X76302200Y-59990400D01*
X76302200Y-59990400D02*
X76302200Y-63633300D01*
%TO.N,+5V*%
X79208700Y-84264800D02*
X87094000Y-84264800D01*
%TO.N,GND*%
X39604500Y-47549300D02*
X45951100Y-47549300D01*
X37254300Y-49899500D02*
X39604500Y-47549300D01*
X37254300Y-51952500D02*
X37254300Y-49899500D01*
X38451100Y-53149300D02*
X37254300Y-51952500D01*
X49332100Y-48553400D02*
X54731200Y-48553400D01*
X48328000Y-47549300D02*
X49332100Y-48553400D01*
X45951100Y-47549300D02*
X48328000Y-47549300D01*
%TO.N,/NPDATA*%
X36835600Y-44264500D02*
X51094200Y-44264500D01*
%TO.N,Net-(D4-A)*%
X51940000Y-47002700D02*
X74955000Y-47002700D01*
%TD*%
M02*
