M48
; DRILL file {KiCad 7.0.10} date Fri Feb  6 21:47:17 2026
; FORMAT={-:-/ absolute / inch / decimal}
; #@! TF.CreationDate,2026-02-06T21:47:17-08:00
; #@! TF.GenerationSoftware,Kicad,Pcbnew,7.0.10
; #@! TF.FileFunction,Plated,1,2,PTH
FMAT,2
INCH
; #@! TA.AperFunction,Plated,PTH,ViaDrill
T1C0.0157
; #@! TA.AperFunction,Plated,PTH,ComponentDrill
T2C0.0394
; #@! TA.AperFunction,Plated,PTH,ComponentDrill
T3C0.0787
%
G90
G05
T1
X1.4502Y-1.7427
X1.592Y-2.5429
X1.8601Y-3.287
X1.9221Y-2.0396
X2.0116Y-1.7427
X2.0449Y-1.8505
X2.1548Y-1.9116
X2.1597Y-2.2962
X2.4118Y-2.0772
X2.6983Y-2.019
X2.7933Y-2.2358
X2.8194Y-3.2265
X2.951Y-1.8505
X3.004Y-2.5052
X3.09Y-2.2759
X3.1185Y-3.3175
X3.4289Y-3.3175
X3.5927Y-2.5447
T2
X1.5138Y-1.9941
X1.5138Y-2.0925
X1.5138Y-2.1909
X2.0847Y-1.9941
X2.0847Y-2.1909
T3
G00X1.7874Y-1.872
M15
G01X1.8308Y-1.872
M16
G05
G00X1.7874Y-2.313
M15
G01X1.8308Y-2.313
M16
G05
M30
