%TF.GenerationSoftware,KiCad,Pcbnew,7.0.10*%
%TF.CreationDate,2026-02-14T23:10:39-08:00*%
%TF.ProjectId,4kemp,346b656d-702e-46b6-9963-61645f706362,rev?*%
%TF.SameCoordinates,Original*%
%TF.FileFunction,Soldermask,Bot*%
%TF.FilePolarity,Negative*%
%FSLAX46Y46*%
G04 Gerber Fmt 4.6, Leading zero omitted, Abs format (unit mm)*
G04 Created by KiCad (PCBNEW 7.0.10) date 2026-02-14 23:10:39*
%MOMM*%
%LPD*%
G01*
G04 APERTURE LIST*
G04 Aperture macros list*
%AMRoundRect*
0 Rectangle with rounded corners*
0 $1 Rounding radius*
0 $2 $3 $4 $5 $6 $7 $8 $9 X,Y pos of 4 corners*
0 Add a 4 corners polygon primitive as box body*
4,1,4,$2,$3,$4,$5,$6,$7,$8,$9,$2,$3,0*
0 Add four circle primitives for the rounded corners*
1,1,$1+$1,$2,$3*
1,1,$1+$1,$4,$5*
1,1,$1+$1,$6,$7*
1,1,$1+$1,$8,$9*
0 Add four rect primitives between the rounded corners*
20,1,$1+$1,$2,$3,$4,$5,0*
20,1,$1+$1,$4,$5,$6,$7,0*
20,1,$1+$1,$6,$7,$8,$9,0*
20,1,$1+$1,$8,$9,$2,$3,0*%
%AMRotRect*
0 Rectangle, with rotation*
0 The origin of the aperture is its center*
0 $1 length*
0 $2 width*
0 $3 Rotation angle, in degrees counterclockwise*
0 Add horizontal line*
21,1,$1,$2,0,0,$3*%
G04 Aperture macros list end*
%ADD10RoundRect,0.250000X-0.550000X-0.550000X0.550000X-0.550000X0.550000X0.550000X-0.550000X0.550000X0*%
%ADD11C,1.600000*%
%ADD12O,4.100000X3.000000*%
%ADD13C,1.701800*%
%ADD14C,3.000000*%
%ADD15C,3.987800*%
%ADD16R,2.550000X2.500000*%
%ADD17RoundRect,0.218750X-0.256250X0.218750X-0.256250X-0.218750X0.256250X-0.218750X0.256250X0.218750X0*%
%ADD18R,1.803400X0.812800*%
%ADD19R,1.500000X1.000000*%
%ADD20RoundRect,0.551000X0.926000X0.551000X-0.926000X0.551000X-0.926000X-0.551000X0.926000X-0.551000X0*%
%ADD21RoundRect,0.237500X0.237500X-0.250000X0.237500X0.250000X-0.237500X0.250000X-0.237500X-0.250000X0*%
%ADD22RotRect,1.500000X1.000000X285.000000*%
%ADD23RotRect,1.500000X1.000000X225.000000*%
G04 APERTURE END LIST*
D10*
%TO.C,SW5*%
X38451100Y-50649300D03*
D11*
X38451100Y-55649300D03*
X38451100Y-53149300D03*
X52951100Y-50649300D03*
X52951100Y-55649300D03*
D12*
X45951100Y-47549300D03*
X45951100Y-58749300D03*
%TD*%
D13*
%TO.C,SW2*%
X62511100Y-76359300D03*
D14*
X63781100Y-73819300D03*
D15*
X67591100Y-76359300D03*
D14*
X70131100Y-71279300D03*
D13*
X72671100Y-76359300D03*
D16*
X73881100Y-71279300D03*
X60031100Y-73819300D03*
%TD*%
D13*
%TO.C,SW3*%
X81561100Y-76359300D03*
D14*
X82831100Y-73819300D03*
D15*
X86641100Y-76359300D03*
D14*
X89181100Y-71279300D03*
D13*
X91721100Y-76359300D03*
D16*
X92931100Y-71279300D03*
X79081100Y-73819300D03*
%TD*%
D13*
%TO.C,SW4*%
X100611100Y-76359300D03*
D14*
X101881100Y-73819300D03*
D15*
X105691100Y-76359300D03*
D14*
X108231100Y-71279300D03*
D13*
X110771100Y-76359300D03*
D16*
X111981100Y-71279300D03*
X98131100Y-73819300D03*
%TD*%
D13*
%TO.C,SW1*%
X43461100Y-76359300D03*
D14*
X44731100Y-73819300D03*
D15*
X48541100Y-76359300D03*
D14*
X51081100Y-71279300D03*
D13*
X53621100Y-76359300D03*
D16*
X54831100Y-71279300D03*
X40981100Y-73819300D03*
%TD*%
D17*
%TO.C,D2*%
X44681100Y-40861800D03*
X44681100Y-42436800D03*
%TD*%
D18*
%TO.C,LED3*%
X89141900Y-81659300D03*
X89141900Y-80160700D03*
X84138100Y-80160700D03*
X84138100Y-81659300D03*
%TD*%
D17*
%TO.C,D3*%
X47271100Y-40861800D03*
X47271100Y-42436800D03*
%TD*%
D19*
%TO.C,D8*%
X50501100Y-89049300D03*
X50501100Y-85849300D03*
X55401100Y-85849300D03*
X55401100Y-89049300D03*
%TD*%
D20*
%TO.C,U1*%
X72951100Y-41989300D03*
X72951100Y-44529300D03*
X72951100Y-47069300D03*
X72951100Y-49609300D03*
X72951100Y-52149300D03*
X72951100Y-54689300D03*
X72951100Y-57229300D03*
X56751100Y-57229300D03*
X56751100Y-54689300D03*
X56751100Y-52149300D03*
X56751100Y-49609300D03*
X56751100Y-47069300D03*
X56751100Y-44529300D03*
X56751100Y-41989300D03*
%TD*%
D19*
%TO.C,D9*%
X77001100Y-89099300D03*
X77001100Y-85899300D03*
X81901100Y-85899300D03*
X81901100Y-89099300D03*
%TD*%
D17*
%TO.C,D1*%
X42091100Y-40861800D03*
X42091100Y-42436800D03*
%TD*%
D21*
%TO.C,R1*%
X56750000Y-63162500D03*
X56750000Y-61337500D03*
%TD*%
D17*
%TO.C,D5*%
X52451100Y-40861800D03*
X52451100Y-42436800D03*
%TD*%
D19*
%TO.C,D10*%
X101501100Y-89099300D03*
X101501100Y-85899300D03*
X106401100Y-85899300D03*
X106401100Y-89099300D03*
%TD*%
D18*
%TO.C,LED2*%
X70091900Y-81649300D03*
X70091900Y-80150700D03*
X65088100Y-80150700D03*
X65088100Y-81649300D03*
%TD*%
D22*
%TO.C,D7*%
X42130688Y-67601708D03*
X39039725Y-68429929D03*
X37771512Y-63696892D03*
X40862475Y-62868671D03*
%TD*%
D17*
%TO.C,D4*%
X49861100Y-40861800D03*
X49861100Y-42436800D03*
%TD*%
D18*
%TO.C,LED4*%
X108191900Y-81659300D03*
X108191900Y-80160700D03*
X103188100Y-80160700D03*
X103188100Y-81659300D03*
%TD*%
%TO.C,LED1*%
X51041900Y-81659300D03*
X51041900Y-80160700D03*
X46038100Y-80160700D03*
X46038100Y-81659300D03*
%TD*%
D23*
%TO.C,D6*%
X36850059Y-48513082D03*
X34587318Y-46250341D03*
X38052141Y-42785518D03*
X40314882Y-45048259D03*
%TD*%
M02*
