%TF.GenerationSoftware,KiCad,Pcbnew,7.0.10*%
%TF.CreationDate,2026-02-14T23:10:39-08:00*%
%TF.ProjectId,4kemp,346b656d-702e-46b6-9963-61645f706362,rev?*%
%TF.SameCoordinates,Original*%
%TF.FileFunction,Copper,L1,Top*%
%TF.FilePolarity,Positive*%
%FSLAX46Y46*%
G04 Gerber Fmt 4.6, Leading zero omitted, Abs format (unit mm)*
G04 Created by KiCad (PCBNEW 7.0.10) date 2026-02-14 23:10:39*
%MOMM*%
%LPD*%
G01*
G04 APERTURE LIST*
G04 Aperture macros list*
%AMRoundRect*
0 Rectangle with rounded corners*
0 $1 Rounding radius*
0 $2 $3 $4 $5 $6 $7 $8 $9 X,Y pos of 4 corners*
0 Add a 4 corners polygon primitive as box body*
4,1,4,$2,$3,$4,$5,$6,$7,$8,$9,$2,$3,0*
0 Add four circle primitives for the rounded corners*
1,1,$1+$1,$2,$3*
1,1,$1+$1,$4,$5*
1,1,$1+$1,$6,$7*
1,1,$1+$1,$8,$9*
0 Add four rect primitives between the rounded corners*
20,1,$1+$1,$2,$3,$4,$5,0*
20,1,$1+$1,$4,$5,$6,$7,0*
20,1,$1+$1,$6,$7,$8,$9,0*
20,1,$1+$1,$8,$9,$2,$3,0*%
G04 Aperture macros list end*
%TA.AperFunction,ComponentPad*%
%ADD10RoundRect,0.250000X-0.550000X-0.550000X0.550000X-0.550000X0.550000X0.550000X-0.550000X0.550000X0*%
%TD*%
%TA.AperFunction,ComponentPad*%
%ADD11C,1.600000*%
%TD*%
%TA.AperFunction,ComponentPad*%
%ADD12O,4.100000X3.000000*%
%TD*%
%TA.AperFunction,ViaPad*%
%ADD13C,0.800000*%
%TD*%
%TA.AperFunction,Conductor*%
%ADD14C,0.250000*%
%TD*%
G04 APERTURE END LIST*
D10*
%TO.P,SW5,A,A*%
%TO.N,/A*%
X38451100Y-50649300D03*
D11*
%TO.P,SW5,B,B*%
%TO.N,/B*%
X38451100Y-55649300D03*
%TO.P,SW5,C,C*%
%TO.N,GND*%
X38451100Y-53149300D03*
%TO.P,SW5,S1,S1*%
%TO.N,/Column2*%
X52951100Y-50649300D03*
%TO.P,SW5,S2,S2*%
%TO.N,Net-(D5-A)*%
X52951100Y-55649300D03*
D12*
%TO.P,SW5,SH,SHIELD*%
%TO.N,GND*%
X45951100Y-47549300D03*
X45951100Y-58749300D03*
%TD*%
D13*
%TO.N,+5V*%
X58475700Y-61250000D03*
X42250000Y-61250000D03*
%TO.N,Net-(D6-DOUT)*%
X40314882Y-45048259D03*
X35250000Y-48250000D03*
%TO.N,Net-(LED2-DIN)*%
X63859500Y-79212500D03*
X84671700Y-78967800D03*
%TO.N,/Column2*%
X66494500Y-50829400D03*
%TO.N,/B*%
X68026900Y-56839000D03*
%TO.N,/A*%
X71186500Y-53513000D03*
%TO.N,/Column1*%
X75770800Y-71364200D03*
X96873100Y-75794500D03*
%TO.N,/Column0*%
X43257600Y-71396100D03*
X77770000Y-67562400D03*
%TO.N,+5V*%
X81901100Y-82113600D03*
X70341200Y-82680800D03*
X90666600Y-81317600D03*
%TO.N,GND*%
X50392400Y-78637100D03*
X52254300Y-77699700D03*
%TO.N,Net-(D5-A)*%
X45284000Y-43501300D03*
%TO.N,Net-(D4-A)*%
X50861000Y-41556900D03*
X80269500Y-40900700D03*
%TO.N,Net-(D3-A)*%
X79373900Y-45082800D03*
X48355400Y-42183300D03*
%TO.N,Net-(D2-A)*%
X60968600Y-48553400D03*
X48566100Y-43189800D03*
%TO.N,/Row0*%
X72468800Y-40073300D03*
X45572400Y-40073300D03*
%TD*%
D14*
%TO.N,+5V*%
X58475700Y-61250000D02*
X42250000Y-61250000D01*
%TO.N,Net-(D6-DOUT)*%
X35250000Y-48250000D02*
X37113141Y-48250000D01*
X37113141Y-48250000D02*
X40314882Y-45048259D01*
%TO.N,Net-(LED2-DIN)*%
X73025900Y-78967800D02*
X84671700Y-78967800D01*
X69316800Y-82676900D02*
X73025900Y-78967800D01*
X65863200Y-82676900D02*
X69316800Y-82676900D01*
X63859600Y-80673300D02*
X65863200Y-82676900D01*
X63859600Y-79212500D02*
X63859600Y-80673300D01*
X63859500Y-79212500D02*
X63859600Y-79212500D01*
%TO.N,/Column2*%
X53131200Y-50829400D02*
X66494500Y-50829400D01*
X52951100Y-50649300D02*
X53131200Y-50829400D01*
%TO.N,/B*%
X39640800Y-56839000D02*
X68026900Y-56839000D01*
X38451100Y-55649300D02*
X39640800Y-56839000D01*
%TO.N,/A*%
X41314800Y-53513000D02*
X71186500Y-53513000D01*
X38451100Y-50649300D02*
X41314800Y-53513000D01*
%TO.N,/Column1*%
X85279600Y-71364200D02*
X75770800Y-71364200D01*
X87271600Y-73356200D02*
X85279600Y-71364200D01*
X94434800Y-73356200D02*
X87271600Y-73356200D01*
X96873100Y-75794500D02*
X94434800Y-73356200D01*
%TO.N,/Column0*%
X47091300Y-67562400D02*
X77770000Y-67562400D01*
X43257600Y-71396100D02*
X47091300Y-67562400D01*
%TO.N,+5V*%
X70908400Y-82113600D02*
X81901100Y-82113600D01*
X70341200Y-82680800D02*
X70908400Y-82113600D01*
X89297300Y-82686900D02*
X90666600Y-81317600D01*
X82474400Y-82686900D02*
X89297300Y-82686900D01*
X81901100Y-82113600D02*
X82474400Y-82686900D01*
%TO.N,GND*%
X39553400Y-47549300D02*
X45951100Y-47549300D01*
X37254300Y-49848400D02*
X39553400Y-47549300D01*
X37254300Y-51952500D02*
X37254300Y-49848400D01*
X38451100Y-53149300D02*
X37254300Y-51952500D01*
X51316900Y-78637100D02*
X52254300Y-77699700D01*
X50392400Y-78637100D02*
X51316900Y-78637100D01*
%TO.N,Net-(D5-A)*%
X42925000Y-43501300D02*
X45284000Y-43501300D01*
X36727200Y-49699100D02*
X42925000Y-43501300D01*
X36727200Y-53054800D02*
X36727200Y-49699100D01*
X38071700Y-54399300D02*
X36727200Y-53054800D01*
X51701100Y-54399300D02*
X38071700Y-54399300D01*
X52951100Y-55649300D02*
X51701100Y-54399300D01*
%TO.N,Net-(D4-A)*%
X51517200Y-40900700D02*
X80269500Y-40900700D01*
X50861000Y-41556900D02*
X51517200Y-40900700D01*
%TO.N,Net-(D3-A)*%
X48733000Y-42183300D02*
X48355400Y-42183300D01*
X51632500Y-45082800D02*
X48733000Y-42183300D01*
X79373900Y-45082800D02*
X51632500Y-45082800D01*
%TO.N,Net-(D2-A)*%
X53929700Y-48553400D02*
X48566100Y-43189800D01*
X60968600Y-48553400D02*
X53929700Y-48553400D01*
%TO.N,/Row0*%
X72468800Y-40073300D02*
X45572400Y-40073300D01*
%TD*%
M02*
