%TF.GenerationSoftware,KiCad,Pcbnew,7.0.10*%
%TF.CreationDate,2026-02-06T21:47:15-08:00*%
%TF.ProjectId,4kemp,346b656d-702e-46b6-9963-61645f706362,rev?*%
%TF.SameCoordinates,Original*%
%TF.FileFunction,Legend,Bot*%
%TF.FilePolarity,Positive*%
%FSLAX46Y46*%
G04 Gerber Fmt 4.6, Leading zero omitted, Abs format (unit mm)*
G04 Created by KiCad (PCBNEW 7.0.10) date 2026-02-06 21:47:15*
%MOMM*%
%LPD*%
G01*
G04 APERTURE LIST*
%ADD10C,0.150000*%
%ADD11C,0.120000*%
%ADD12C,0.152400*%
%ADD13C,0.127000*%
%ADD14C,0.200000*%
G04 APERTURE END LIST*
D10*
X68924432Y-68511500D02*
X68781575Y-68559119D01*
X68781575Y-68559119D02*
X68543480Y-68559119D01*
X68543480Y-68559119D02*
X68448242Y-68511500D01*
X68448242Y-68511500D02*
X68400623Y-68463880D01*
X68400623Y-68463880D02*
X68353004Y-68368642D01*
X68353004Y-68368642D02*
X68353004Y-68273404D01*
X68353004Y-68273404D02*
X68400623Y-68178166D01*
X68400623Y-68178166D02*
X68448242Y-68130547D01*
X68448242Y-68130547D02*
X68543480Y-68082928D01*
X68543480Y-68082928D02*
X68733956Y-68035309D01*
X68733956Y-68035309D02*
X68829194Y-67987690D01*
X68829194Y-67987690D02*
X68876813Y-67940071D01*
X68876813Y-67940071D02*
X68924432Y-67844833D01*
X68924432Y-67844833D02*
X68924432Y-67749595D01*
X68924432Y-67749595D02*
X68876813Y-67654357D01*
X68876813Y-67654357D02*
X68829194Y-67606738D01*
X68829194Y-67606738D02*
X68733956Y-67559119D01*
X68733956Y-67559119D02*
X68495861Y-67559119D01*
X68495861Y-67559119D02*
X68353004Y-67606738D01*
X68019670Y-67559119D02*
X67781575Y-68559119D01*
X67781575Y-68559119D02*
X67591099Y-67844833D01*
X67591099Y-67844833D02*
X67400623Y-68559119D01*
X67400623Y-68559119D02*
X67162528Y-67559119D01*
X66829194Y-67654357D02*
X66781575Y-67606738D01*
X66781575Y-67606738D02*
X66686337Y-67559119D01*
X66686337Y-67559119D02*
X66448242Y-67559119D01*
X66448242Y-67559119D02*
X66353004Y-67606738D01*
X66353004Y-67606738D02*
X66305385Y-67654357D01*
X66305385Y-67654357D02*
X66257766Y-67749595D01*
X66257766Y-67749595D02*
X66257766Y-67844833D01*
X66257766Y-67844833D02*
X66305385Y-67987690D01*
X66305385Y-67987690D02*
X66876813Y-68559119D01*
X66876813Y-68559119D02*
X66257766Y-68559119D01*
X87974432Y-68511500D02*
X87831575Y-68559119D01*
X87831575Y-68559119D02*
X87593480Y-68559119D01*
X87593480Y-68559119D02*
X87498242Y-68511500D01*
X87498242Y-68511500D02*
X87450623Y-68463880D01*
X87450623Y-68463880D02*
X87403004Y-68368642D01*
X87403004Y-68368642D02*
X87403004Y-68273404D01*
X87403004Y-68273404D02*
X87450623Y-68178166D01*
X87450623Y-68178166D02*
X87498242Y-68130547D01*
X87498242Y-68130547D02*
X87593480Y-68082928D01*
X87593480Y-68082928D02*
X87783956Y-68035309D01*
X87783956Y-68035309D02*
X87879194Y-67987690D01*
X87879194Y-67987690D02*
X87926813Y-67940071D01*
X87926813Y-67940071D02*
X87974432Y-67844833D01*
X87974432Y-67844833D02*
X87974432Y-67749595D01*
X87974432Y-67749595D02*
X87926813Y-67654357D01*
X87926813Y-67654357D02*
X87879194Y-67606738D01*
X87879194Y-67606738D02*
X87783956Y-67559119D01*
X87783956Y-67559119D02*
X87545861Y-67559119D01*
X87545861Y-67559119D02*
X87403004Y-67606738D01*
X87069670Y-67559119D02*
X86831575Y-68559119D01*
X86831575Y-68559119D02*
X86641099Y-67844833D01*
X86641099Y-67844833D02*
X86450623Y-68559119D01*
X86450623Y-68559119D02*
X86212528Y-67559119D01*
X85926813Y-67559119D02*
X85307766Y-67559119D01*
X85307766Y-67559119D02*
X85641099Y-67940071D01*
X85641099Y-67940071D02*
X85498242Y-67940071D01*
X85498242Y-67940071D02*
X85403004Y-67987690D01*
X85403004Y-67987690D02*
X85355385Y-68035309D01*
X85355385Y-68035309D02*
X85307766Y-68130547D01*
X85307766Y-68130547D02*
X85307766Y-68368642D01*
X85307766Y-68368642D02*
X85355385Y-68463880D01*
X85355385Y-68463880D02*
X85403004Y-68511500D01*
X85403004Y-68511500D02*
X85498242Y-68559119D01*
X85498242Y-68559119D02*
X85783956Y-68559119D01*
X85783956Y-68559119D02*
X85879194Y-68511500D01*
X85879194Y-68511500D02*
X85926813Y-68463880D01*
X107024432Y-68511500D02*
X106881575Y-68559119D01*
X106881575Y-68559119D02*
X106643480Y-68559119D01*
X106643480Y-68559119D02*
X106548242Y-68511500D01*
X106548242Y-68511500D02*
X106500623Y-68463880D01*
X106500623Y-68463880D02*
X106453004Y-68368642D01*
X106453004Y-68368642D02*
X106453004Y-68273404D01*
X106453004Y-68273404D02*
X106500623Y-68178166D01*
X106500623Y-68178166D02*
X106548242Y-68130547D01*
X106548242Y-68130547D02*
X106643480Y-68082928D01*
X106643480Y-68082928D02*
X106833956Y-68035309D01*
X106833956Y-68035309D02*
X106929194Y-67987690D01*
X106929194Y-67987690D02*
X106976813Y-67940071D01*
X106976813Y-67940071D02*
X107024432Y-67844833D01*
X107024432Y-67844833D02*
X107024432Y-67749595D01*
X107024432Y-67749595D02*
X106976813Y-67654357D01*
X106976813Y-67654357D02*
X106929194Y-67606738D01*
X106929194Y-67606738D02*
X106833956Y-67559119D01*
X106833956Y-67559119D02*
X106595861Y-67559119D01*
X106595861Y-67559119D02*
X106453004Y-67606738D01*
X106119670Y-67559119D02*
X105881575Y-68559119D01*
X105881575Y-68559119D02*
X105691099Y-67844833D01*
X105691099Y-67844833D02*
X105500623Y-68559119D01*
X105500623Y-68559119D02*
X105262528Y-67559119D01*
X104453004Y-67892452D02*
X104453004Y-68559119D01*
X104691099Y-67511500D02*
X104929194Y-68225785D01*
X104929194Y-68225785D02*
X104310147Y-68225785D01*
X49874432Y-68511500D02*
X49731575Y-68559119D01*
X49731575Y-68559119D02*
X49493480Y-68559119D01*
X49493480Y-68559119D02*
X49398242Y-68511500D01*
X49398242Y-68511500D02*
X49350623Y-68463880D01*
X49350623Y-68463880D02*
X49303004Y-68368642D01*
X49303004Y-68368642D02*
X49303004Y-68273404D01*
X49303004Y-68273404D02*
X49350623Y-68178166D01*
X49350623Y-68178166D02*
X49398242Y-68130547D01*
X49398242Y-68130547D02*
X49493480Y-68082928D01*
X49493480Y-68082928D02*
X49683956Y-68035309D01*
X49683956Y-68035309D02*
X49779194Y-67987690D01*
X49779194Y-67987690D02*
X49826813Y-67940071D01*
X49826813Y-67940071D02*
X49874432Y-67844833D01*
X49874432Y-67844833D02*
X49874432Y-67749595D01*
X49874432Y-67749595D02*
X49826813Y-67654357D01*
X49826813Y-67654357D02*
X49779194Y-67606738D01*
X49779194Y-67606738D02*
X49683956Y-67559119D01*
X49683956Y-67559119D02*
X49445861Y-67559119D01*
X49445861Y-67559119D02*
X49303004Y-67606738D01*
X48969670Y-67559119D02*
X48731575Y-68559119D01*
X48731575Y-68559119D02*
X48541099Y-67844833D01*
X48541099Y-67844833D02*
X48350623Y-68559119D01*
X48350623Y-68559119D02*
X48112528Y-67559119D01*
X47207766Y-68559119D02*
X47779194Y-68559119D01*
X47493480Y-68559119D02*
X47493480Y-67559119D01*
X47493480Y-67559119D02*
X47588718Y-67701976D01*
X47588718Y-67701976D02*
X47683956Y-67797214D01*
X47683956Y-67797214D02*
X47779194Y-67844833D01*
X45155919Y-43411205D02*
X44155919Y-43411205D01*
X44155919Y-43411205D02*
X44155919Y-43649300D01*
X44155919Y-43649300D02*
X44203538Y-43792157D01*
X44203538Y-43792157D02*
X44298776Y-43887395D01*
X44298776Y-43887395D02*
X44394014Y-43935014D01*
X44394014Y-43935014D02*
X44584490Y-43982633D01*
X44584490Y-43982633D02*
X44727347Y-43982633D01*
X44727347Y-43982633D02*
X44917823Y-43935014D01*
X44917823Y-43935014D02*
X45013061Y-43887395D01*
X45013061Y-43887395D02*
X45108300Y-43792157D01*
X45108300Y-43792157D02*
X45155919Y-43649300D01*
X45155919Y-43649300D02*
X45155919Y-43411205D01*
X44251157Y-44363586D02*
X44203538Y-44411205D01*
X44203538Y-44411205D02*
X44155919Y-44506443D01*
X44155919Y-44506443D02*
X44155919Y-44744538D01*
X44155919Y-44744538D02*
X44203538Y-44839776D01*
X44203538Y-44839776D02*
X44251157Y-44887395D01*
X44251157Y-44887395D02*
X44346395Y-44935014D01*
X44346395Y-44935014D02*
X44441633Y-44935014D01*
X44441633Y-44935014D02*
X44584490Y-44887395D01*
X44584490Y-44887395D02*
X45155919Y-44315967D01*
X45155919Y-44315967D02*
X45155919Y-44935014D01*
X82522819Y-79790952D02*
X82522819Y-79314762D01*
X82522819Y-79314762D02*
X81522819Y-79314762D01*
X81999009Y-80124286D02*
X81999009Y-80457619D01*
X82522819Y-80600476D02*
X82522819Y-80124286D01*
X82522819Y-80124286D02*
X81522819Y-80124286D01*
X81522819Y-80124286D02*
X81522819Y-80600476D01*
X82522819Y-81029048D02*
X81522819Y-81029048D01*
X81522819Y-81029048D02*
X81522819Y-81267143D01*
X81522819Y-81267143D02*
X81570438Y-81410000D01*
X81570438Y-81410000D02*
X81665676Y-81505238D01*
X81665676Y-81505238D02*
X81760914Y-81552857D01*
X81760914Y-81552857D02*
X81951390Y-81600476D01*
X81951390Y-81600476D02*
X82094247Y-81600476D01*
X82094247Y-81600476D02*
X82284723Y-81552857D01*
X82284723Y-81552857D02*
X82379961Y-81505238D01*
X82379961Y-81505238D02*
X82475200Y-81410000D01*
X82475200Y-81410000D02*
X82522819Y-81267143D01*
X82522819Y-81267143D02*
X82522819Y-81029048D01*
X81522819Y-81933810D02*
X81522819Y-82552857D01*
X81522819Y-82552857D02*
X81903771Y-82219524D01*
X81903771Y-82219524D02*
X81903771Y-82362381D01*
X81903771Y-82362381D02*
X81951390Y-82457619D01*
X81951390Y-82457619D02*
X81999009Y-82505238D01*
X81999009Y-82505238D02*
X82094247Y-82552857D01*
X82094247Y-82552857D02*
X82332342Y-82552857D01*
X82332342Y-82552857D02*
X82427580Y-82505238D01*
X82427580Y-82505238D02*
X82475200Y-82457619D01*
X82475200Y-82457619D02*
X82522819Y-82362381D01*
X82522819Y-82362381D02*
X82522819Y-82076667D01*
X82522819Y-82076667D02*
X82475200Y-81981429D01*
X82475200Y-81981429D02*
X82427580Y-81933810D01*
X47655919Y-43411205D02*
X46655919Y-43411205D01*
X46655919Y-43411205D02*
X46655919Y-43649300D01*
X46655919Y-43649300D02*
X46703538Y-43792157D01*
X46703538Y-43792157D02*
X46798776Y-43887395D01*
X46798776Y-43887395D02*
X46894014Y-43935014D01*
X46894014Y-43935014D02*
X47084490Y-43982633D01*
X47084490Y-43982633D02*
X47227347Y-43982633D01*
X47227347Y-43982633D02*
X47417823Y-43935014D01*
X47417823Y-43935014D02*
X47513061Y-43887395D01*
X47513061Y-43887395D02*
X47608300Y-43792157D01*
X47608300Y-43792157D02*
X47655919Y-43649300D01*
X47655919Y-43649300D02*
X47655919Y-43411205D01*
X46655919Y-44315967D02*
X46655919Y-44935014D01*
X46655919Y-44935014D02*
X47036871Y-44601681D01*
X47036871Y-44601681D02*
X47036871Y-44744538D01*
X47036871Y-44744538D02*
X47084490Y-44839776D01*
X47084490Y-44839776D02*
X47132109Y-44887395D01*
X47132109Y-44887395D02*
X47227347Y-44935014D01*
X47227347Y-44935014D02*
X47465442Y-44935014D01*
X47465442Y-44935014D02*
X47560680Y-44887395D01*
X47560680Y-44887395D02*
X47608300Y-44839776D01*
X47608300Y-44839776D02*
X47655919Y-44744538D01*
X47655919Y-44744538D02*
X47655919Y-44458824D01*
X47655919Y-44458824D02*
X47608300Y-44363586D01*
X47608300Y-44363586D02*
X47560680Y-44315967D01*
X58189194Y-88004119D02*
X58189194Y-87004119D01*
X58189194Y-87004119D02*
X57951099Y-87004119D01*
X57951099Y-87004119D02*
X57808242Y-87051738D01*
X57808242Y-87051738D02*
X57713004Y-87146976D01*
X57713004Y-87146976D02*
X57665385Y-87242214D01*
X57665385Y-87242214D02*
X57617766Y-87432690D01*
X57617766Y-87432690D02*
X57617766Y-87575547D01*
X57617766Y-87575547D02*
X57665385Y-87766023D01*
X57665385Y-87766023D02*
X57713004Y-87861261D01*
X57713004Y-87861261D02*
X57808242Y-87956500D01*
X57808242Y-87956500D02*
X57951099Y-88004119D01*
X57951099Y-88004119D02*
X58189194Y-88004119D01*
X57046337Y-87432690D02*
X57141575Y-87385071D01*
X57141575Y-87385071D02*
X57189194Y-87337452D01*
X57189194Y-87337452D02*
X57236813Y-87242214D01*
X57236813Y-87242214D02*
X57236813Y-87194595D01*
X57236813Y-87194595D02*
X57189194Y-87099357D01*
X57189194Y-87099357D02*
X57141575Y-87051738D01*
X57141575Y-87051738D02*
X57046337Y-87004119D01*
X57046337Y-87004119D02*
X56855861Y-87004119D01*
X56855861Y-87004119D02*
X56760623Y-87051738D01*
X56760623Y-87051738D02*
X56713004Y-87099357D01*
X56713004Y-87099357D02*
X56665385Y-87194595D01*
X56665385Y-87194595D02*
X56665385Y-87242214D01*
X56665385Y-87242214D02*
X56713004Y-87337452D01*
X56713004Y-87337452D02*
X56760623Y-87385071D01*
X56760623Y-87385071D02*
X56855861Y-87432690D01*
X56855861Y-87432690D02*
X57046337Y-87432690D01*
X57046337Y-87432690D02*
X57141575Y-87480309D01*
X57141575Y-87480309D02*
X57189194Y-87527928D01*
X57189194Y-87527928D02*
X57236813Y-87623166D01*
X57236813Y-87623166D02*
X57236813Y-87813642D01*
X57236813Y-87813642D02*
X57189194Y-87908880D01*
X57189194Y-87908880D02*
X57141575Y-87956500D01*
X57141575Y-87956500D02*
X57046337Y-88004119D01*
X57046337Y-88004119D02*
X56855861Y-88004119D01*
X56855861Y-88004119D02*
X56760623Y-87956500D01*
X56760623Y-87956500D02*
X56713004Y-87908880D01*
X56713004Y-87908880D02*
X56665385Y-87813642D01*
X56665385Y-87813642D02*
X56665385Y-87623166D01*
X56665385Y-87623166D02*
X56713004Y-87527928D01*
X56713004Y-87527928D02*
X56760623Y-87480309D01*
X56760623Y-87480309D02*
X56855861Y-87432690D01*
X71358623Y-35677595D02*
X71358623Y-36325214D01*
X71358623Y-36325214D02*
X71320528Y-36401404D01*
X71320528Y-36401404D02*
X71282433Y-36439500D01*
X71282433Y-36439500D02*
X71206242Y-36477595D01*
X71206242Y-36477595D02*
X71053861Y-36477595D01*
X71053861Y-36477595D02*
X70977671Y-36439500D01*
X70977671Y-36439500D02*
X70939576Y-36401404D01*
X70939576Y-36401404D02*
X70901480Y-36325214D01*
X70901480Y-36325214D02*
X70901480Y-35677595D01*
X70101481Y-36477595D02*
X70558624Y-36477595D01*
X70330052Y-36477595D02*
X70330052Y-35677595D01*
X70330052Y-35677595D02*
X70406243Y-35791880D01*
X70406243Y-35791880D02*
X70482433Y-35868071D01*
X70482433Y-35868071D02*
X70558624Y-35906166D01*
X84689194Y-87954119D02*
X84689194Y-86954119D01*
X84689194Y-86954119D02*
X84451099Y-86954119D01*
X84451099Y-86954119D02*
X84308242Y-87001738D01*
X84308242Y-87001738D02*
X84213004Y-87096976D01*
X84213004Y-87096976D02*
X84165385Y-87192214D01*
X84165385Y-87192214D02*
X84117766Y-87382690D01*
X84117766Y-87382690D02*
X84117766Y-87525547D01*
X84117766Y-87525547D02*
X84165385Y-87716023D01*
X84165385Y-87716023D02*
X84213004Y-87811261D01*
X84213004Y-87811261D02*
X84308242Y-87906500D01*
X84308242Y-87906500D02*
X84451099Y-87954119D01*
X84451099Y-87954119D02*
X84689194Y-87954119D01*
X83641575Y-87954119D02*
X83451099Y-87954119D01*
X83451099Y-87954119D02*
X83355861Y-87906500D01*
X83355861Y-87906500D02*
X83308242Y-87858880D01*
X83308242Y-87858880D02*
X83213004Y-87716023D01*
X83213004Y-87716023D02*
X83165385Y-87525547D01*
X83165385Y-87525547D02*
X83165385Y-87144595D01*
X83165385Y-87144595D02*
X83213004Y-87049357D01*
X83213004Y-87049357D02*
X83260623Y-87001738D01*
X83260623Y-87001738D02*
X83355861Y-86954119D01*
X83355861Y-86954119D02*
X83546337Y-86954119D01*
X83546337Y-86954119D02*
X83641575Y-87001738D01*
X83641575Y-87001738D02*
X83689194Y-87049357D01*
X83689194Y-87049357D02*
X83736813Y-87144595D01*
X83736813Y-87144595D02*
X83736813Y-87382690D01*
X83736813Y-87382690D02*
X83689194Y-87477928D01*
X83689194Y-87477928D02*
X83641575Y-87525547D01*
X83641575Y-87525547D02*
X83546337Y-87573166D01*
X83546337Y-87573166D02*
X83355861Y-87573166D01*
X83355861Y-87573166D02*
X83260623Y-87525547D01*
X83260623Y-87525547D02*
X83213004Y-87477928D01*
X83213004Y-87477928D02*
X83165385Y-87382690D01*
X42655919Y-43411205D02*
X41655919Y-43411205D01*
X41655919Y-43411205D02*
X41655919Y-43649300D01*
X41655919Y-43649300D02*
X41703538Y-43792157D01*
X41703538Y-43792157D02*
X41798776Y-43887395D01*
X41798776Y-43887395D02*
X41894014Y-43935014D01*
X41894014Y-43935014D02*
X42084490Y-43982633D01*
X42084490Y-43982633D02*
X42227347Y-43982633D01*
X42227347Y-43982633D02*
X42417823Y-43935014D01*
X42417823Y-43935014D02*
X42513061Y-43887395D01*
X42513061Y-43887395D02*
X42608300Y-43792157D01*
X42608300Y-43792157D02*
X42655919Y-43649300D01*
X42655919Y-43649300D02*
X42655919Y-43411205D01*
X42655919Y-44935014D02*
X42655919Y-44363586D01*
X42655919Y-44649300D02*
X41655919Y-44649300D01*
X41655919Y-44649300D02*
X41798776Y-44554062D01*
X41798776Y-44554062D02*
X41894014Y-44458824D01*
X41894014Y-44458824D02*
X41941633Y-44363586D01*
X52905919Y-43411205D02*
X51905919Y-43411205D01*
X51905919Y-43411205D02*
X51905919Y-43649300D01*
X51905919Y-43649300D02*
X51953538Y-43792157D01*
X51953538Y-43792157D02*
X52048776Y-43887395D01*
X52048776Y-43887395D02*
X52144014Y-43935014D01*
X52144014Y-43935014D02*
X52334490Y-43982633D01*
X52334490Y-43982633D02*
X52477347Y-43982633D01*
X52477347Y-43982633D02*
X52667823Y-43935014D01*
X52667823Y-43935014D02*
X52763061Y-43887395D01*
X52763061Y-43887395D02*
X52858300Y-43792157D01*
X52858300Y-43792157D02*
X52905919Y-43649300D01*
X52905919Y-43649300D02*
X52905919Y-43411205D01*
X51905919Y-44887395D02*
X51905919Y-44411205D01*
X51905919Y-44411205D02*
X52382109Y-44363586D01*
X52382109Y-44363586D02*
X52334490Y-44411205D01*
X52334490Y-44411205D02*
X52286871Y-44506443D01*
X52286871Y-44506443D02*
X52286871Y-44744538D01*
X52286871Y-44744538D02*
X52334490Y-44839776D01*
X52334490Y-44839776D02*
X52382109Y-44887395D01*
X52382109Y-44887395D02*
X52477347Y-44935014D01*
X52477347Y-44935014D02*
X52715442Y-44935014D01*
X52715442Y-44935014D02*
X52810680Y-44887395D01*
X52810680Y-44887395D02*
X52858300Y-44839776D01*
X52858300Y-44839776D02*
X52905919Y-44744538D01*
X52905919Y-44744538D02*
X52905919Y-44506443D01*
X52905919Y-44506443D02*
X52858300Y-44411205D01*
X52858300Y-44411205D02*
X52810680Y-44363586D01*
X100165385Y-88054119D02*
X100165385Y-87054119D01*
X100165385Y-87054119D02*
X99927290Y-87054119D01*
X99927290Y-87054119D02*
X99784433Y-87101738D01*
X99784433Y-87101738D02*
X99689195Y-87196976D01*
X99689195Y-87196976D02*
X99641576Y-87292214D01*
X99641576Y-87292214D02*
X99593957Y-87482690D01*
X99593957Y-87482690D02*
X99593957Y-87625547D01*
X99593957Y-87625547D02*
X99641576Y-87816023D01*
X99641576Y-87816023D02*
X99689195Y-87911261D01*
X99689195Y-87911261D02*
X99784433Y-88006500D01*
X99784433Y-88006500D02*
X99927290Y-88054119D01*
X99927290Y-88054119D02*
X100165385Y-88054119D01*
X98641576Y-88054119D02*
X99213004Y-88054119D01*
X98927290Y-88054119D02*
X98927290Y-87054119D01*
X98927290Y-87054119D02*
X99022528Y-87196976D01*
X99022528Y-87196976D02*
X99117766Y-87292214D01*
X99117766Y-87292214D02*
X99213004Y-87339833D01*
X98022528Y-87054119D02*
X97927290Y-87054119D01*
X97927290Y-87054119D02*
X97832052Y-87101738D01*
X97832052Y-87101738D02*
X97784433Y-87149357D01*
X97784433Y-87149357D02*
X97736814Y-87244595D01*
X97736814Y-87244595D02*
X97689195Y-87435071D01*
X97689195Y-87435071D02*
X97689195Y-87673166D01*
X97689195Y-87673166D02*
X97736814Y-87863642D01*
X97736814Y-87863642D02*
X97784433Y-87958880D01*
X97784433Y-87958880D02*
X97832052Y-88006500D01*
X97832052Y-88006500D02*
X97927290Y-88054119D01*
X97927290Y-88054119D02*
X98022528Y-88054119D01*
X98022528Y-88054119D02*
X98117766Y-88006500D01*
X98117766Y-88006500D02*
X98165385Y-87958880D01*
X98165385Y-87958880D02*
X98213004Y-87863642D01*
X98213004Y-87863642D02*
X98260623Y-87673166D01*
X98260623Y-87673166D02*
X98260623Y-87435071D01*
X98260623Y-87435071D02*
X98213004Y-87244595D01*
X98213004Y-87244595D02*
X98165385Y-87149357D01*
X98165385Y-87149357D02*
X98117766Y-87101738D01*
X98117766Y-87101738D02*
X98022528Y-87054119D01*
X63472819Y-79780952D02*
X63472819Y-79304762D01*
X63472819Y-79304762D02*
X62472819Y-79304762D01*
X62949009Y-80114286D02*
X62949009Y-80447619D01*
X63472819Y-80590476D02*
X63472819Y-80114286D01*
X63472819Y-80114286D02*
X62472819Y-80114286D01*
X62472819Y-80114286D02*
X62472819Y-80590476D01*
X63472819Y-81019048D02*
X62472819Y-81019048D01*
X62472819Y-81019048D02*
X62472819Y-81257143D01*
X62472819Y-81257143D02*
X62520438Y-81400000D01*
X62520438Y-81400000D02*
X62615676Y-81495238D01*
X62615676Y-81495238D02*
X62710914Y-81542857D01*
X62710914Y-81542857D02*
X62901390Y-81590476D01*
X62901390Y-81590476D02*
X63044247Y-81590476D01*
X63044247Y-81590476D02*
X63234723Y-81542857D01*
X63234723Y-81542857D02*
X63329961Y-81495238D01*
X63329961Y-81495238D02*
X63425200Y-81400000D01*
X63425200Y-81400000D02*
X63472819Y-81257143D01*
X63472819Y-81257143D02*
X63472819Y-81019048D01*
X62568057Y-81971429D02*
X62520438Y-82019048D01*
X62520438Y-82019048D02*
X62472819Y-82114286D01*
X62472819Y-82114286D02*
X62472819Y-82352381D01*
X62472819Y-82352381D02*
X62520438Y-82447619D01*
X62520438Y-82447619D02*
X62568057Y-82495238D01*
X62568057Y-82495238D02*
X62663295Y-82542857D01*
X62663295Y-82542857D02*
X62758533Y-82542857D01*
X62758533Y-82542857D02*
X62901390Y-82495238D01*
X62901390Y-82495238D02*
X63472819Y-81923810D01*
X63472819Y-81923810D02*
X63472819Y-82542857D01*
X36107554Y-67106841D02*
X37073480Y-66848022D01*
X37073480Y-66848022D02*
X37011856Y-66618040D01*
X37011856Y-66618040D02*
X36928886Y-66492375D01*
X36928886Y-66492375D02*
X36812243Y-66425032D01*
X36812243Y-66425032D02*
X36707926Y-66403685D01*
X36707926Y-66403685D02*
X36511615Y-66406987D01*
X36511615Y-66406987D02*
X36373626Y-66443961D01*
X36373626Y-66443961D02*
X36201964Y-66539256D01*
X36201964Y-66539256D02*
X36122296Y-66609902D01*
X36122296Y-66609902D02*
X36054953Y-66726545D01*
X36054953Y-66726545D02*
X36045930Y-66876859D01*
X36045930Y-66876859D02*
X36107554Y-67106841D01*
X36839310Y-65974089D02*
X36666764Y-65330139D01*
X36666764Y-65330139D02*
X35811761Y-66002926D01*
X50405919Y-43411205D02*
X49405919Y-43411205D01*
X49405919Y-43411205D02*
X49405919Y-43649300D01*
X49405919Y-43649300D02*
X49453538Y-43792157D01*
X49453538Y-43792157D02*
X49548776Y-43887395D01*
X49548776Y-43887395D02*
X49644014Y-43935014D01*
X49644014Y-43935014D02*
X49834490Y-43982633D01*
X49834490Y-43982633D02*
X49977347Y-43982633D01*
X49977347Y-43982633D02*
X50167823Y-43935014D01*
X50167823Y-43935014D02*
X50263061Y-43887395D01*
X50263061Y-43887395D02*
X50358300Y-43792157D01*
X50358300Y-43792157D02*
X50405919Y-43649300D01*
X50405919Y-43649300D02*
X50405919Y-43411205D01*
X49739252Y-44839776D02*
X50405919Y-44839776D01*
X49358300Y-44601681D02*
X50072585Y-44363586D01*
X50072585Y-44363586D02*
X50072585Y-44982633D01*
X101572819Y-79790952D02*
X101572819Y-79314762D01*
X101572819Y-79314762D02*
X100572819Y-79314762D01*
X101049009Y-80124286D02*
X101049009Y-80457619D01*
X101572819Y-80600476D02*
X101572819Y-80124286D01*
X101572819Y-80124286D02*
X100572819Y-80124286D01*
X100572819Y-80124286D02*
X100572819Y-80600476D01*
X101572819Y-81029048D02*
X100572819Y-81029048D01*
X100572819Y-81029048D02*
X100572819Y-81267143D01*
X100572819Y-81267143D02*
X100620438Y-81410000D01*
X100620438Y-81410000D02*
X100715676Y-81505238D01*
X100715676Y-81505238D02*
X100810914Y-81552857D01*
X100810914Y-81552857D02*
X101001390Y-81600476D01*
X101001390Y-81600476D02*
X101144247Y-81600476D01*
X101144247Y-81600476D02*
X101334723Y-81552857D01*
X101334723Y-81552857D02*
X101429961Y-81505238D01*
X101429961Y-81505238D02*
X101525200Y-81410000D01*
X101525200Y-81410000D02*
X101572819Y-81267143D01*
X101572819Y-81267143D02*
X101572819Y-81029048D01*
X100906152Y-82457619D02*
X101572819Y-82457619D01*
X100525200Y-82219524D02*
X101239485Y-81981429D01*
X101239485Y-81981429D02*
X101239485Y-82600476D01*
X44422819Y-79790952D02*
X44422819Y-79314762D01*
X44422819Y-79314762D02*
X43422819Y-79314762D01*
X43899009Y-80124286D02*
X43899009Y-80457619D01*
X44422819Y-80600476D02*
X44422819Y-80124286D01*
X44422819Y-80124286D02*
X43422819Y-80124286D01*
X43422819Y-80124286D02*
X43422819Y-80600476D01*
X44422819Y-81029048D02*
X43422819Y-81029048D01*
X43422819Y-81029048D02*
X43422819Y-81267143D01*
X43422819Y-81267143D02*
X43470438Y-81410000D01*
X43470438Y-81410000D02*
X43565676Y-81505238D01*
X43565676Y-81505238D02*
X43660914Y-81552857D01*
X43660914Y-81552857D02*
X43851390Y-81600476D01*
X43851390Y-81600476D02*
X43994247Y-81600476D01*
X43994247Y-81600476D02*
X44184723Y-81552857D01*
X44184723Y-81552857D02*
X44279961Y-81505238D01*
X44279961Y-81505238D02*
X44375200Y-81410000D01*
X44375200Y-81410000D02*
X44422819Y-81267143D01*
X44422819Y-81267143D02*
X44422819Y-81029048D01*
X44422819Y-82552857D02*
X44422819Y-81981429D01*
X44422819Y-82267143D02*
X43422819Y-82267143D01*
X43422819Y-82267143D02*
X43565676Y-82171905D01*
X43565676Y-82171905D02*
X43660914Y-82076667D01*
X43660914Y-82076667D02*
X43708533Y-81981429D01*
X40794617Y-47948993D02*
X40087510Y-47241887D01*
X40087510Y-47241887D02*
X39919151Y-47410245D01*
X39919151Y-47410245D02*
X39851808Y-47544932D01*
X39851808Y-47544932D02*
X39851808Y-47679619D01*
X39851808Y-47679619D02*
X39885480Y-47780635D01*
X39885480Y-47780635D02*
X39986495Y-47948993D01*
X39986495Y-47948993D02*
X40087510Y-48050009D01*
X40087510Y-48050009D02*
X40255869Y-48151024D01*
X40255869Y-48151024D02*
X40356884Y-48184696D01*
X40356884Y-48184696D02*
X40491571Y-48184696D01*
X40491571Y-48184696D02*
X40626258Y-48117352D01*
X40626258Y-48117352D02*
X40794617Y-47948993D01*
X39077358Y-48252039D02*
X39212045Y-48117352D01*
X39212045Y-48117352D02*
X39313060Y-48083680D01*
X39313060Y-48083680D02*
X39380403Y-48083680D01*
X39380403Y-48083680D02*
X39548762Y-48117352D01*
X39548762Y-48117352D02*
X39717121Y-48218367D01*
X39717121Y-48218367D02*
X39986495Y-48487741D01*
X39986495Y-48487741D02*
X40020167Y-48588757D01*
X40020167Y-48588757D02*
X40020167Y-48656100D01*
X40020167Y-48656100D02*
X39986495Y-48757115D01*
X39986495Y-48757115D02*
X39851808Y-48891802D01*
X39851808Y-48891802D02*
X39750793Y-48925474D01*
X39750793Y-48925474D02*
X39683449Y-48925474D01*
X39683449Y-48925474D02*
X39582434Y-48891802D01*
X39582434Y-48891802D02*
X39414075Y-48723444D01*
X39414075Y-48723444D02*
X39380403Y-48622428D01*
X39380403Y-48622428D02*
X39380403Y-48555085D01*
X39380403Y-48555085D02*
X39414075Y-48454070D01*
X39414075Y-48454070D02*
X39548762Y-48319383D01*
X39548762Y-48319383D02*
X39649777Y-48285711D01*
X39649777Y-48285711D02*
X39717121Y-48285711D01*
X39717121Y-48285711D02*
X39818136Y-48319383D01*
%TO.C,SW2*%
X61241100Y-71914300D02*
X61241100Y-72295300D01*
X61241100Y-75343300D02*
X61241100Y-75724300D01*
X61622100Y-75724300D02*
X61241100Y-75724300D01*
X63781100Y-69374300D02*
X72671100Y-69374300D01*
X65126938Y-75724300D02*
X63400100Y-75724300D01*
X72671100Y-69374300D02*
X72671100Y-69755300D01*
X72671100Y-72803300D02*
X72671100Y-73819300D01*
X72671100Y-73819300D02*
X67591100Y-73819300D01*
X63781100Y-69374300D02*
G75*
G03*
X61241100Y-71914300I1J-2540001D01*
G01*
X67591100Y-73819300D02*
G75*
G03*
X65126939Y-75743260I0J-2539999D01*
G01*
%TO.C,SW3*%
X80291100Y-71914300D02*
X80291100Y-72295300D01*
X80291100Y-75343300D02*
X80291100Y-75724300D01*
X80672100Y-75724300D02*
X80291100Y-75724300D01*
X82831100Y-69374300D02*
X91721100Y-69374300D01*
X84176938Y-75724300D02*
X82450100Y-75724300D01*
X91721100Y-69374300D02*
X91721100Y-69755300D01*
X91721100Y-72803300D02*
X91721100Y-73819300D01*
X91721100Y-73819300D02*
X86641100Y-73819300D01*
X82831100Y-69374300D02*
G75*
G03*
X80291100Y-71914300I1J-2540001D01*
G01*
X86641100Y-73819300D02*
G75*
G03*
X84176939Y-75743260I0J-2539999D01*
G01*
%TO.C,SW4*%
X99341100Y-71914300D02*
X99341100Y-72295300D01*
X99341100Y-75343300D02*
X99341100Y-75724300D01*
X99722100Y-75724300D02*
X99341100Y-75724300D01*
X101881100Y-69374300D02*
X110771100Y-69374300D01*
X103226938Y-75724300D02*
X101500100Y-75724300D01*
X110771100Y-69374300D02*
X110771100Y-69755300D01*
X110771100Y-72803300D02*
X110771100Y-73819300D01*
X110771100Y-73819300D02*
X105691100Y-73819300D01*
X101881100Y-69374300D02*
G75*
G03*
X99341100Y-71914300I1J-2540001D01*
G01*
X105691100Y-73819300D02*
G75*
G03*
X103226939Y-75743260I0J-2539999D01*
G01*
%TO.C,SW1*%
X42191100Y-71914300D02*
X42191100Y-72295300D01*
X42191100Y-75343300D02*
X42191100Y-75724300D01*
X42572100Y-75724300D02*
X42191100Y-75724300D01*
X44731100Y-69374300D02*
X53621100Y-69374300D01*
X46076938Y-75724300D02*
X44350100Y-75724300D01*
X53621100Y-69374300D02*
X53621100Y-69755300D01*
X53621100Y-72803300D02*
X53621100Y-73819300D01*
X53621100Y-73819300D02*
X48541100Y-73819300D01*
X44731100Y-69374300D02*
G75*
G03*
X42191100Y-71914300I1J-2540001D01*
G01*
X48541100Y-73819300D02*
G75*
G03*
X46076939Y-75743260I0J-2539999D01*
G01*
D11*
%TO.C,D2*%
X45416100Y-40164300D02*
X45416100Y-42449300D01*
X43946100Y-40164300D02*
X45416100Y-40164300D01*
X43946100Y-42449300D02*
X43946100Y-40164300D01*
D12*
%TO.C,LED3*%
X88367200Y-79386000D02*
X84912800Y-79386000D01*
X84912800Y-82434000D02*
X88367200Y-82434000D01*
D11*
%TO.C,D3*%
X48006100Y-40164300D02*
X48006100Y-42449300D01*
X46536100Y-40164300D02*
X48006100Y-40164300D01*
X46536100Y-42449300D02*
X46536100Y-40164300D01*
D13*
%TO.C,D8*%
X55451100Y-89949300D02*
X50451100Y-89949300D01*
X55451100Y-88235800D02*
X55451100Y-86662800D01*
X50451100Y-88235800D02*
X50451100Y-86662800D01*
X50451100Y-84949300D02*
X55451100Y-84949300D01*
D14*
X56801100Y-85849300D02*
G75*
G03*
X56601100Y-85849300I-100000J0D01*
G01*
X56601100Y-85849300D02*
G75*
G03*
X56801100Y-85849300I100000J0D01*
G01*
D13*
%TO.C,U1*%
X73751100Y-60109300D02*
X55951100Y-60109300D01*
X73751100Y-58579300D02*
X73751100Y-60109300D01*
X73751100Y-40609300D02*
X73751100Y-39109300D01*
X73751100Y-39109300D02*
X69351100Y-39109300D01*
X69351100Y-39109300D02*
X69351100Y-37709300D01*
X69351100Y-37685300D02*
X60356100Y-37685300D01*
X60351100Y-39109300D02*
X55951100Y-39109300D01*
X60351100Y-37709300D02*
X60351100Y-39109300D01*
X55951100Y-60109300D02*
X55951100Y-58579300D01*
X55951100Y-39109300D02*
X55951100Y-40609300D01*
D14*
X75180100Y-41718300D02*
G75*
G03*
X74980100Y-41718300I-100000J0D01*
G01*
X74980100Y-41718300D02*
G75*
G03*
X75180100Y-41718300I100000J0D01*
G01*
D13*
%TO.C,D9*%
X81951100Y-89999300D02*
X76951100Y-89999300D01*
X81951100Y-88285800D02*
X81951100Y-86712800D01*
X76951100Y-88285800D02*
X76951100Y-86712800D01*
X76951100Y-84999300D02*
X81951100Y-84999300D01*
D14*
X83301100Y-85899300D02*
G75*
G03*
X83101100Y-85899300I-100000J0D01*
G01*
X83101100Y-85899300D02*
G75*
G03*
X83301100Y-85899300I100000J0D01*
G01*
D11*
%TO.C,D1*%
X42826100Y-40164300D02*
X42826100Y-42449300D01*
X41356100Y-40164300D02*
X42826100Y-40164300D01*
X41356100Y-42449300D02*
X41356100Y-40164300D01*
%TO.C,D5*%
X53186100Y-40164300D02*
X53186100Y-42449300D01*
X51716100Y-40164300D02*
X53186100Y-40164300D01*
X51716100Y-42449300D02*
X51716100Y-40164300D01*
D13*
%TO.C,D10*%
X106451100Y-89999300D02*
X101451100Y-89999300D01*
X106451100Y-88285800D02*
X106451100Y-86712800D01*
X101451100Y-88285800D02*
X101451100Y-86712800D01*
X101451100Y-84999300D02*
X106451100Y-84999300D01*
D14*
X107801100Y-85899300D02*
G75*
G03*
X107601100Y-85899300I-100000J0D01*
G01*
X107601100Y-85899300D02*
G75*
G03*
X107801100Y-85899300I100000J0D01*
G01*
D12*
%TO.C,LED2*%
X69317200Y-79376000D02*
X65862800Y-79376000D01*
X65862800Y-82424000D02*
X69317200Y-82424000D01*
D13*
%TO.C,D7*%
X41718867Y-62587438D02*
X43012962Y-67417067D01*
X40063753Y-63030924D02*
X38544352Y-63438047D01*
X41357848Y-67860553D02*
X39838447Y-68267676D01*
X38183333Y-68711162D02*
X36889238Y-63881533D01*
D14*
X37535046Y-62441189D02*
G75*
G03*
X37335048Y-62441189I-99999J0D01*
G01*
X37335048Y-62441189D02*
G75*
G03*
X37535046Y-62441189I99999J0D01*
G01*
D11*
%TO.C,D4*%
X50596100Y-40164300D02*
X50596100Y-42449300D01*
X49126100Y-40164300D02*
X50596100Y-40164300D01*
X49126100Y-42449300D02*
X49126100Y-40164300D01*
D12*
%TO.C,LED4*%
X107417200Y-79386000D02*
X103962800Y-79386000D01*
X103962800Y-82434000D02*
X107417200Y-82434000D01*
%TO.C,LED1*%
X50267200Y-79386000D02*
X46812800Y-79386000D01*
X46812800Y-82434000D02*
X50267200Y-82434000D01*
D13*
%TO.C,D6*%
X40986634Y-45649300D02*
X37451100Y-49184834D01*
X39775006Y-44437673D02*
X38662727Y-43325394D01*
X36239473Y-47973206D02*
X35127194Y-46860927D01*
X33915566Y-45649300D02*
X37451100Y-42113766D01*
D14*
X39071380Y-41866279D02*
G75*
G03*
X38871380Y-41866279I-100000J0D01*
G01*
X38871380Y-41866279D02*
G75*
G03*
X39071380Y-41866279I100000J0D01*
G01*
%TD*%
M02*
