%TF.GenerationSoftware,KiCad,Pcbnew,7.0.10*%
%TF.CreationDate,2026-02-14T23:10:39-08:00*%
%TF.ProjectId,4kemp,346b656d-702e-46b6-9963-61645f706362,rev?*%
%TF.SameCoordinates,Original*%
%TF.FileFunction,Copper,L2,Bot*%
%TF.FilePolarity,Positive*%
%FSLAX46Y46*%
G04 Gerber Fmt 4.6, Leading zero omitted, Abs format (unit mm)*
G04 Created by KiCad (PCBNEW 7.0.10) date 2026-02-14 23:10:39*
%MOMM*%
%LPD*%
G01*
G04 APERTURE LIST*
G04 Aperture macros list*
%AMRoundRect*
0 Rectangle with rounded corners*
0 $1 Rounding radius*
0 $2 $3 $4 $5 $6 $7 $8 $9 X,Y pos of 4 corners*
0 Add a 4 corners polygon primitive as box body*
4,1,4,$2,$3,$4,$5,$6,$7,$8,$9,$2,$3,0*
0 Add four circle primitives for the rounded corners*
1,1,$1+$1,$2,$3*
1,1,$1+$1,$4,$5*
1,1,$1+$1,$6,$7*
1,1,$1+$1,$8,$9*
0 Add four rect primitives between the rounded corners*
20,1,$1+$1,$2,$3,$4,$5,0*
20,1,$1+$1,$4,$5,$6,$7,0*
20,1,$1+$1,$6,$7,$8,$9,0*
20,1,$1+$1,$8,$9,$2,$3,0*%
%AMRotRect*
0 Rectangle, with rotation*
0 The origin of the aperture is its center*
0 $1 length*
0 $2 width*
0 $3 Rotation angle, in degrees counterclockwise*
0 Add horizontal line*
21,1,$1,$2,0,0,$3*%
G04 Aperture macros list end*
%TA.AperFunction,ComponentPad*%
%ADD10RoundRect,0.250000X-0.550000X-0.550000X0.550000X-0.550000X0.550000X0.550000X-0.550000X0.550000X0*%
%TD*%
%TA.AperFunction,ComponentPad*%
%ADD11C,1.600000*%
%TD*%
%TA.AperFunction,ComponentPad*%
%ADD12O,4.100000X3.000000*%
%TD*%
%TA.AperFunction,SMDPad,CuDef*%
%ADD13R,2.550000X2.500000*%
%TD*%
%TA.AperFunction,SMDPad,CuDef*%
%ADD14RoundRect,0.218750X-0.256250X0.218750X-0.256250X-0.218750X0.256250X-0.218750X0.256250X0.218750X0*%
%TD*%
%TA.AperFunction,SMDPad,CuDef*%
%ADD15R,1.803400X0.812800*%
%TD*%
%TA.AperFunction,SMDPad,CuDef*%
%ADD16R,1.500000X1.000000*%
%TD*%
%TA.AperFunction,SMDPad,CuDef*%
%ADD17RoundRect,0.500000X0.875000X0.500000X-0.875000X0.500000X-0.875000X-0.500000X0.875000X-0.500000X0*%
%TD*%
%TA.AperFunction,SMDPad,CuDef*%
%ADD18RoundRect,0.237500X0.237500X-0.250000X0.237500X0.250000X-0.237500X0.250000X-0.237500X-0.250000X0*%
%TD*%
%TA.AperFunction,SMDPad,CuDef*%
%ADD19RotRect,1.500000X1.000000X285.000000*%
%TD*%
%TA.AperFunction,SMDPad,CuDef*%
%ADD20RotRect,1.500000X1.000000X225.000000*%
%TD*%
%TA.AperFunction,ViaPad*%
%ADD21C,0.800000*%
%TD*%
%TA.AperFunction,Conductor*%
%ADD22C,0.250000*%
%TD*%
G04 APERTURE END LIST*
D10*
%TO.P,SW5,A,A*%
%TO.N,/A*%
X38451100Y-50649300D03*
D11*
%TO.P,SW5,B,B*%
%TO.N,/B*%
X38451100Y-55649300D03*
%TO.P,SW5,C,C*%
%TO.N,GND*%
X38451100Y-53149300D03*
%TO.P,SW5,S1,S1*%
%TO.N,/Column2*%
X52951100Y-50649300D03*
%TO.P,SW5,S2,S2*%
%TO.N,Net-(D5-A)*%
X52951100Y-55649300D03*
D12*
%TO.P,SW5,SH,SHIELD*%
%TO.N,GND*%
X45951100Y-47549300D03*
X45951100Y-58749300D03*
%TD*%
D13*
%TO.P,SW2,1,A*%
%TO.N,Net-(D2-A)*%
X73881100Y-71279300D03*
%TO.P,SW2,2,B*%
%TO.N,/Column1*%
X60031100Y-73819300D03*
%TD*%
%TO.P,SW3,1,A*%
%TO.N,Net-(D3-A)*%
X92931100Y-71279300D03*
%TO.P,SW3,2,B*%
%TO.N,/Column0*%
X79081100Y-73819300D03*
%TD*%
%TO.P,SW4,1,A*%
%TO.N,Net-(D4-A)*%
X111981100Y-71279300D03*
%TO.P,SW4,2,B*%
%TO.N,/Column1*%
X98131100Y-73819300D03*
%TD*%
%TO.P,SW1,1,A*%
%TO.N,Net-(D1-A)*%
X54831100Y-71279300D03*
%TO.P,SW1,2,B*%
%TO.N,/Column0*%
X40981100Y-73819300D03*
%TD*%
D14*
%TO.P,D2,1,K*%
%TO.N,/Row0*%
X44681100Y-40861800D03*
%TO.P,D2,2,A*%
%TO.N,Net-(D2-A)*%
X44681100Y-42436800D03*
%TD*%
D15*
%TO.P,LED3,1,VDD*%
%TO.N,+5V*%
X89141900Y-81659300D03*
%TO.P,LED3,2,DOUT*%
%TO.N,Net-(LED2-DIN)*%
X89141900Y-80160700D03*
%TO.P,LED3,3,GND*%
%TO.N,GND*%
X84138100Y-80160700D03*
%TO.P,LED3,4,DIN*%
%TO.N,Net-(LED3-DIN)*%
X84138100Y-81659300D03*
%TD*%
D14*
%TO.P,D3,1,K*%
%TO.N,/Row1*%
X47271100Y-40861800D03*
%TO.P,D3,2,A*%
%TO.N,Net-(D3-A)*%
X47271100Y-42436800D03*
%TD*%
D16*
%TO.P,D8,1,VSS*%
%TO.N,GND*%
X50501100Y-89049300D03*
%TO.P,D8,2,DIN*%
%TO.N,Net-(D7-DOUT)*%
X50501100Y-85849300D03*
%TO.P,D8,3,VDD*%
%TO.N,+5V*%
X55401100Y-85849300D03*
%TO.P,D8,4,DOUT*%
%TO.N,Net-(D8-DOUT)*%
X55401100Y-89049300D03*
%TD*%
D17*
%TO.P,U1,1,P26/A0/D0*%
%TO.N,/Row0*%
X72951100Y-41989300D03*
%TO.P,U1,2,P27/A1/D1*%
%TO.N,/Row1*%
X72951100Y-44529300D03*
%TO.P,U1,3,P28/A2/D2*%
%TO.N,/Column0*%
X72951100Y-47069300D03*
%TO.P,U1,4,P29/A3/D3*%
%TO.N,/Column1*%
X72951100Y-49609300D03*
%TO.P,U1,5,P6/SDA/D4*%
%TO.N,/Column2*%
X72951100Y-52149300D03*
%TO.P,U1,6,P7/SCL/D5*%
%TO.N,/A*%
X72951100Y-54689300D03*
%TO.P,U1,7,P0//TX/D6*%
%TO.N,/B*%
X72951100Y-57229300D03*
%TO.P,U1,8,D7/CSB/P1/RX*%
%TO.N,Net-(U1-D7{slash}CSB{slash}P1{slash}RX)*%
X56751100Y-57229300D03*
%TO.P,U1,9,D8/SCK/P2*%
%TO.N,unconnected-(U1-D8{slash}SCK{slash}P2-Pad9)*%
X56751100Y-54689300D03*
%TO.P,U1,10,D9/MISO/P4*%
%TO.N,unconnected-(U1-D9{slash}MISO{slash}P4-Pad10)*%
X56751100Y-52149300D03*
%TO.P,U1,11,D10/MOSI/P3*%
%TO.N,unconnected-(U1-D10{slash}MOSI{slash}P3-Pad11)*%
X56751100Y-49609300D03*
%TO.P,U1,12,3V3*%
%TO.N,unconnected-(U1-3V3-Pad12)*%
X56751100Y-47069300D03*
%TO.P,U1,13,GND*%
%TO.N,GND*%
X56751100Y-44529300D03*
%TO.P,U1,14,5V*%
%TO.N,+5V*%
X56751100Y-41989300D03*
%TD*%
D16*
%TO.P,D9,1,VSS*%
%TO.N,GND*%
X77001100Y-89099300D03*
%TO.P,D9,2,DIN*%
%TO.N,Net-(D8-DOUT)*%
X77001100Y-85899300D03*
%TO.P,D9,3,VDD*%
%TO.N,+5V*%
X81901100Y-85899300D03*
%TO.P,D9,4,DOUT*%
%TO.N,Net-(D10-DIN)*%
X81901100Y-89099300D03*
%TD*%
D14*
%TO.P,D1,1,K*%
%TO.N,/Row0*%
X42091100Y-40861800D03*
%TO.P,D1,2,A*%
%TO.N,Net-(D1-A)*%
X42091100Y-42436800D03*
%TD*%
D18*
%TO.P,R1,1*%
%TO.N,Net-(U1-D7{slash}CSB{slash}P1{slash}RX)*%
X56750000Y-63162500D03*
%TO.P,R1,2*%
%TO.N,/NPDATA*%
X56750000Y-61337500D03*
%TD*%
D14*
%TO.P,D5,1,K*%
%TO.N,/Row1*%
X52451100Y-40861800D03*
%TO.P,D5,2,A*%
%TO.N,Net-(D5-A)*%
X52451100Y-42436800D03*
%TD*%
D16*
%TO.P,D10,1,VSS*%
%TO.N,GND*%
X101501100Y-89099300D03*
%TO.P,D10,2,DIN*%
%TO.N,Net-(D10-DIN)*%
X101501100Y-85899300D03*
%TO.P,D10,3,VDD*%
%TO.N,+5V*%
X106401100Y-85899300D03*
%TO.P,D10,4,DOUT*%
%TO.N,/NP2DATA*%
X106401100Y-89099300D03*
%TD*%
D15*
%TO.P,LED2,1,VDD*%
%TO.N,+5V*%
X70091900Y-81649300D03*
%TO.P,LED2,2,DOUT*%
%TO.N,Net-(LED1-DIN)*%
X70091900Y-80150700D03*
%TO.P,LED2,3,GND*%
%TO.N,GND*%
X65088100Y-80150700D03*
%TO.P,LED2,4,DIN*%
%TO.N,Net-(LED2-DIN)*%
X65088100Y-81649300D03*
%TD*%
D19*
%TO.P,D7,1,VSS*%
%TO.N,GND*%
X42130688Y-67601708D03*
%TO.P,D7,2,DIN*%
%TO.N,Net-(D6-DOUT)*%
X39039725Y-68429929D03*
%TO.P,D7,3,VDD*%
%TO.N,+5V*%
X37771512Y-63696892D03*
%TO.P,D7,4,DOUT*%
%TO.N,Net-(D7-DOUT)*%
X40862475Y-62868671D03*
%TD*%
D14*
%TO.P,D4,1,K*%
%TO.N,/Row1*%
X49861100Y-40861800D03*
%TO.P,D4,2,A*%
%TO.N,Net-(D4-A)*%
X49861100Y-42436800D03*
%TD*%
D15*
%TO.P,LED4,1,VDD*%
%TO.N,+5V*%
X108191900Y-81659300D03*
%TO.P,LED4,2,DOUT*%
%TO.N,Net-(LED3-DIN)*%
X108191900Y-80160700D03*
%TO.P,LED4,3,GND*%
%TO.N,GND*%
X103188100Y-80160700D03*
%TO.P,LED4,4,DIN*%
%TO.N,/NP2DATA*%
X103188100Y-81659300D03*
%TD*%
%TO.P,LED1,1,VDD*%
%TO.N,+5V*%
X51041900Y-81659300D03*
%TO.P,LED1,2,DOUT*%
%TO.N,unconnected-(LED1-DOUT-Pad2)*%
X51041900Y-80160700D03*
%TO.P,LED1,3,GND*%
%TO.N,GND*%
X46038100Y-80160700D03*
%TO.P,LED1,4,DIN*%
%TO.N,Net-(LED1-DIN)*%
X46038100Y-81659300D03*
%TD*%
D20*
%TO.P,D6,1,VSS*%
%TO.N,GND*%
X36850059Y-48513082D03*
%TO.P,D6,2,DIN*%
%TO.N,/NPDATA*%
X34587318Y-46250341D03*
%TO.P,D6,3,VDD*%
%TO.N,+5V*%
X38052141Y-42785518D03*
%TO.P,D6,4,DOUT*%
%TO.N,Net-(D6-DOUT)*%
X40314882Y-45048259D03*
%TD*%
D21*
%TO.N,+5V*%
X58475700Y-61250000D03*
X42250000Y-61250000D03*
%TO.N,Net-(D6-DOUT)*%
X40314882Y-45048259D03*
X35250000Y-48250000D03*
%TO.N,Net-(LED2-DIN)*%
X63859500Y-79212500D03*
X84671700Y-78967800D03*
%TO.N,/Column2*%
X66494500Y-50829400D03*
%TO.N,/B*%
X68026900Y-56839000D03*
%TO.N,/A*%
X71186500Y-53513000D03*
%TO.N,/Column1*%
X75770800Y-71364200D03*
X96873100Y-75794500D03*
%TO.N,/Column0*%
X43257600Y-71396100D03*
X77770000Y-67562400D03*
%TO.N,+5V*%
X81901100Y-82113600D03*
X70341200Y-82680800D03*
X90666600Y-81317600D03*
%TO.N,GND*%
X50392400Y-78637100D03*
X52254300Y-77699700D03*
%TO.N,Net-(D5-A)*%
X45284000Y-43501300D03*
%TO.N,Net-(D4-A)*%
X50861000Y-41556900D03*
X80269500Y-40900700D03*
%TO.N,Net-(D3-A)*%
X79373900Y-45082800D03*
X48355400Y-42183300D03*
%TO.N,Net-(D2-A)*%
X60968600Y-48553400D03*
X48566100Y-43189800D03*
%TO.N,/Row0*%
X72468800Y-40073300D03*
X45572400Y-40073300D03*
%TD*%
D22*
%TO.N,+5V*%
X58391800Y-70994400D02*
X58391800Y-82680300D01*
X58475700Y-61250000D02*
X58475700Y-43674800D01*
X58475700Y-70910500D02*
X58391800Y-70994400D01*
X58475700Y-61250000D02*
X58475700Y-70910500D01*
X58475700Y-43674800D02*
X56790200Y-41989300D01*
X56790200Y-41989300D02*
X56751100Y-41989300D01*
X40218404Y-61250000D02*
X42250000Y-61250000D01*
X37771512Y-63696892D02*
X40218404Y-61250000D01*
%TO.N,Net-(D6-DOUT)*%
X35638600Y-48638600D02*
X35250000Y-48250000D01*
X35638600Y-65028804D02*
X35638600Y-48638600D01*
X39039725Y-68429929D02*
X35638600Y-65028804D01*
%TO.N,Net-(U1-D7{slash}CSB{slash}P1{slash}RX)*%
X57597200Y-58075400D02*
X56751100Y-57229300D01*
X57597200Y-62315300D02*
X57597200Y-58075400D01*
X56750000Y-63162500D02*
X57597200Y-62315300D01*
%TO.N,Net-(D8-DOUT)*%
X59628000Y-85899300D02*
X56478000Y-89049300D01*
X77001100Y-85899300D02*
X59628000Y-85899300D01*
X55401100Y-89049300D02*
X56478000Y-89049300D01*
%TO.N,Net-(D7-DOUT)*%
X40862500Y-62868700D02*
X41198500Y-64122900D01*
X50501100Y-85849300D02*
X51578000Y-85849300D01*
X51578000Y-84772400D02*
X51578000Y-85849300D01*
X52273300Y-84077100D02*
X51578000Y-84772400D01*
X52273300Y-78746600D02*
X52273300Y-84077100D01*
X51527400Y-78000700D02*
X52273300Y-78746600D01*
X51527400Y-77976800D02*
X51527400Y-78000700D01*
X51437500Y-77886900D02*
X51527400Y-77976800D01*
X51437500Y-75592400D02*
X51437500Y-77886900D01*
X48039300Y-72194200D02*
X51437500Y-75592400D01*
X47402400Y-72194200D02*
X48039300Y-72194200D01*
X46950600Y-71742400D02*
X47402400Y-72194200D01*
X44649700Y-71742400D02*
X46950600Y-71742400D01*
X41114500Y-68207200D02*
X44649700Y-71742400D01*
X41114500Y-64206900D02*
X41114500Y-68207200D01*
X41198500Y-64122900D02*
X41114500Y-64206900D01*
%TO.N,/NP2DATA*%
X103188100Y-86963200D02*
X103188100Y-81659300D01*
X105324200Y-89099300D02*
X103188100Y-86963200D01*
X106401100Y-89099300D02*
X105324200Y-89099300D01*
%TO.N,Net-(LED3-DIN)*%
X108191900Y-79877100D02*
X108191900Y-80160700D01*
X107395600Y-79080800D02*
X108191900Y-79877100D01*
X93931400Y-79080800D02*
X107395600Y-79080800D01*
X90264500Y-82747700D02*
X93931400Y-79080800D01*
X84917800Y-82747700D02*
X90264500Y-82747700D01*
X84138100Y-81968000D02*
X84917800Y-82747700D01*
X84138100Y-81659300D02*
X84138100Y-81968000D01*
%TO.N,Net-(LED2-DIN)*%
X65088100Y-81649300D02*
X63859500Y-81649300D01*
X63859500Y-81649300D02*
X63859500Y-79212500D01*
X88205500Y-78967800D02*
X84671700Y-78967800D01*
X89141900Y-79904200D02*
X88205500Y-78967800D01*
X89141900Y-80160700D02*
X89141900Y-79904200D01*
%TO.N,Net-(LED1-DIN)*%
X70091900Y-80150700D02*
X71320500Y-80150700D01*
X71320500Y-82729500D02*
X71320500Y-80150700D01*
X70407000Y-83643000D02*
X71320500Y-82729500D01*
X59325500Y-83643000D02*
X70407000Y-83643000D01*
X55829800Y-87138700D02*
X59325500Y-83643000D01*
X49407600Y-87138700D02*
X55829800Y-87138700D01*
X46038100Y-83769200D02*
X49407600Y-87138700D01*
X46038100Y-81659300D02*
X46038100Y-83769200D01*
%TO.N,/Column2*%
X67814400Y-52149300D02*
X66494500Y-50829400D01*
X72951100Y-52149300D02*
X67814400Y-52149300D01*
%TO.N,/B*%
X68417200Y-57229300D02*
X68026900Y-56839000D01*
X72951100Y-57229300D02*
X68417200Y-57229300D01*
%TO.N,/A*%
X71774800Y-53513000D02*
X72951100Y-54689300D01*
X71186500Y-53513000D02*
X71774800Y-53513000D01*
%TO.N,/Column1*%
X60031100Y-73819300D02*
X60031100Y-72242400D01*
X97271400Y-75396200D02*
X98131100Y-75396200D01*
X96873100Y-75794500D02*
X97271400Y-75396200D01*
X98131100Y-73819300D02*
X98131100Y-75396200D01*
X75560900Y-52142100D02*
X75560900Y-71364200D01*
X73028100Y-49609300D02*
X75560900Y-52142100D01*
X72951100Y-49609300D02*
X73028100Y-49609300D01*
X60539600Y-71733900D02*
X60031100Y-72242400D01*
X67100900Y-71733900D02*
X60539600Y-71733900D01*
X68732700Y-73365700D02*
X67100900Y-71733900D01*
X74834300Y-73365700D02*
X68732700Y-73365700D01*
X75560900Y-72639100D02*
X74834300Y-73365700D01*
X75560900Y-71364200D02*
X75560900Y-72639100D01*
X75560900Y-71364200D02*
X75770800Y-71364200D01*
%TO.N,/Column0*%
X79081100Y-73819300D02*
X79081100Y-72242400D01*
X42411300Y-72242400D02*
X43257600Y-71396100D01*
X40981100Y-72242400D02*
X42411300Y-72242400D01*
X77770000Y-51792600D02*
X77770000Y-67562400D01*
X73046700Y-47069300D02*
X77770000Y-51792600D01*
X72951100Y-47069300D02*
X73046700Y-47069300D01*
X77770000Y-70931300D02*
X79081100Y-72242400D01*
X77770000Y-67562400D02*
X77770000Y-70931300D01*
X40981100Y-73819300D02*
X40981100Y-72242400D01*
%TO.N,Net-(D10-DIN)*%
X81901100Y-89099300D02*
X82978000Y-89099300D01*
X97224200Y-89099300D02*
X100424200Y-85899300D01*
X82978000Y-89099300D02*
X97224200Y-89099300D01*
X101501100Y-85899300D02*
X100424200Y-85899300D01*
%TO.N,+5V*%
X106401100Y-85899300D02*
X107478000Y-85899300D01*
X108191900Y-81659300D02*
X109307100Y-81659300D01*
X109307100Y-81659300D02*
X109419000Y-81659300D01*
X55939600Y-85849300D02*
X56478000Y-85849300D01*
X55939600Y-85849300D02*
X55401100Y-85849300D01*
X51041900Y-83269500D02*
X51041900Y-81659300D01*
X49424200Y-84887200D02*
X51041900Y-83269500D01*
X49424200Y-86496700D02*
X49424200Y-84887200D01*
X49603800Y-86676300D02*
X49424200Y-86496700D01*
X53497200Y-86676300D02*
X49603800Y-86676300D01*
X54324200Y-85849300D02*
X53497200Y-86676300D01*
X55401100Y-85849300D02*
X54324200Y-85849300D01*
X54908300Y-41989300D02*
X56751100Y-41989300D01*
X52529000Y-44368600D02*
X54908300Y-41989300D01*
X45106600Y-44368600D02*
X52529000Y-44368600D01*
X44016500Y-43278500D02*
X45106600Y-44368600D01*
X44016500Y-43103900D02*
X44016500Y-43278500D01*
X42584200Y-41671600D02*
X44016500Y-43103900D01*
X39166000Y-41671600D02*
X42584200Y-41671600D01*
X38052100Y-42785500D02*
X39166000Y-41671600D01*
X109419000Y-81659300D02*
X109420500Y-81659300D01*
X109420500Y-83956800D02*
X109420500Y-81659300D01*
X107478000Y-85899300D02*
X109420500Y-83956800D01*
X82978000Y-83190500D02*
X81901100Y-82113600D01*
X82978000Y-85899300D02*
X82978000Y-83190500D01*
X81901100Y-85899300D02*
X82978000Y-85899300D01*
X69870100Y-81871100D02*
X70091900Y-81649300D01*
X69870100Y-82680300D02*
X69870100Y-81871100D01*
X58391800Y-82680300D02*
X69870100Y-82680300D01*
X58391800Y-83935500D02*
X56478000Y-85849300D01*
X58391800Y-82680300D02*
X58391800Y-83935500D01*
X69870600Y-82680800D02*
X70341200Y-82680800D01*
X69870100Y-82680300D02*
X69870600Y-82680800D01*
X90370500Y-81613700D02*
X90370500Y-81659300D01*
X90666600Y-81317600D02*
X90370500Y-81613700D01*
X89141900Y-81659300D02*
X90370500Y-81659300D01*
X89141900Y-81659300D02*
X90370500Y-81659300D01*
X96146200Y-75883600D02*
X90370500Y-81659300D01*
X96146200Y-72801000D02*
X96146200Y-75883600D01*
X97227200Y-71720000D02*
X96146200Y-72801000D01*
X104685400Y-71720000D02*
X97227200Y-71720000D01*
X106321600Y-73356200D02*
X104685400Y-71720000D01*
X109825300Y-73356200D02*
X106321600Y-73356200D01*
X112245800Y-75776700D02*
X109825300Y-73356200D01*
X112245800Y-78834000D02*
X112245800Y-75776700D01*
X109420500Y-81659300D02*
X112245800Y-78834000D01*
%TO.N,GND*%
X36088600Y-50786800D02*
X38451100Y-53149300D01*
X36088600Y-49274600D02*
X36088600Y-50786800D01*
X36850100Y-48513100D02*
X36088600Y-49274600D01*
X45951100Y-47549300D02*
X45951100Y-45722400D01*
X42130700Y-67601700D02*
X41794700Y-66347500D01*
X45951100Y-58749300D02*
X45951100Y-60576200D01*
X77001100Y-89099300D02*
X78078000Y-89099300D01*
X103188100Y-80160700D02*
X101959500Y-80160700D01*
X43070300Y-63457000D02*
X43070300Y-60576200D01*
X42130700Y-64396600D02*
X43070300Y-63457000D01*
X42130700Y-66011500D02*
X42130700Y-64396600D01*
X41794700Y-66347500D02*
X42130700Y-66011500D01*
X43070300Y-57768500D02*
X38451100Y-53149300D01*
X43070300Y-60576200D02*
X43070300Y-57768500D01*
X102039600Y-89099300D02*
X102578000Y-89099300D01*
X102039600Y-89099300D02*
X101501100Y-89099300D01*
X78904900Y-89926200D02*
X78078000Y-89099300D01*
X99597300Y-89926200D02*
X78904900Y-89926200D01*
X100424200Y-89099300D02*
X99597300Y-89926200D01*
X101501100Y-89099300D02*
X100424200Y-89099300D01*
X50501100Y-89049300D02*
X50920300Y-89049300D01*
X50920300Y-89049300D02*
X51578000Y-89049300D01*
X50600800Y-89049300D02*
X50920300Y-89049300D01*
X44809500Y-83258000D02*
X50600800Y-89049300D01*
X44809500Y-80160700D02*
X44809500Y-83258000D01*
X55558000Y-45722400D02*
X56751100Y-44529300D01*
X45951100Y-45722400D02*
X55558000Y-45722400D01*
X102578000Y-83734000D02*
X102578000Y-89099300D01*
X101959500Y-83115500D02*
X102578000Y-83734000D01*
X101959500Y-80160700D02*
X101959500Y-83115500D01*
X84138100Y-80160700D02*
X82909500Y-80160700D01*
X43070300Y-60576200D02*
X45951100Y-60576200D01*
X65088100Y-79871300D02*
X65088100Y-80150700D01*
X65876500Y-79082900D02*
X65088100Y-79871300D01*
X70937600Y-79082900D02*
X65876500Y-79082900D01*
X71775000Y-79920300D02*
X70937600Y-79082900D01*
X71775000Y-85042300D02*
X71775000Y-79920300D01*
X58883500Y-85042300D02*
X71775000Y-85042300D01*
X55727300Y-88198500D02*
X58883500Y-85042300D01*
X52428800Y-88198500D02*
X55727300Y-88198500D01*
X51578000Y-89049300D02*
X52428800Y-88198500D01*
X77951200Y-85035600D02*
X77951200Y-85042300D01*
X82826100Y-80160700D02*
X77951200Y-85035600D01*
X82909500Y-80160700D02*
X82826100Y-80160700D01*
X71775000Y-85042300D02*
X77951200Y-85042300D01*
X78078000Y-85169100D02*
X78078000Y-89099300D01*
X77951200Y-85042300D02*
X78078000Y-85169100D01*
X46038100Y-80160700D02*
X45423800Y-80160700D01*
X45423800Y-80160700D02*
X44809500Y-80160700D01*
X49896400Y-79133100D02*
X50392400Y-78637100D01*
X46451400Y-79133100D02*
X49896400Y-79133100D01*
X45423800Y-80160700D02*
X46451400Y-79133100D01*
X45361900Y-68856000D02*
X42466800Y-68856000D01*
X52114500Y-75608600D02*
X45361900Y-68856000D01*
X52114500Y-77559900D02*
X52114500Y-75608600D01*
X52254300Y-77699700D02*
X52114500Y-77559900D01*
X42130700Y-67601700D02*
X42466800Y-68856000D01*
%TO.N,/NPDATA*%
X34587300Y-46250300D02*
X35348800Y-45488800D01*
X36110200Y-46250300D02*
X35348800Y-45488800D01*
X39557700Y-46250300D02*
X36110200Y-46250300D01*
X54644900Y-61337500D02*
X39557700Y-46250300D01*
X56750000Y-61337500D02*
X54644900Y-61337500D01*
%TO.N,Net-(D5-A)*%
X50971200Y-43916700D02*
X52451100Y-42436800D01*
X45699400Y-43916700D02*
X50971200Y-43916700D01*
X45284000Y-43501300D02*
X45699400Y-43916700D01*
%TO.N,Net-(D4-A)*%
X49981100Y-42436800D02*
X50861000Y-41556900D01*
X49861100Y-42436800D02*
X49981100Y-42436800D01*
X81611600Y-42242800D02*
X80269500Y-40900700D01*
X81611600Y-61273500D02*
X81611600Y-42242800D01*
X83316600Y-62978500D02*
X81611600Y-61273500D01*
X105257200Y-62978500D02*
X83316600Y-62978500D01*
X111981100Y-69702400D02*
X105257200Y-62978500D01*
X111981100Y-71279300D02*
X111981100Y-69702400D01*
%TO.N,Net-(D3-A)*%
X92931100Y-71279300D02*
X92931100Y-69702400D01*
X47524600Y-42183300D02*
X48355400Y-42183300D01*
X47271100Y-42436800D02*
X47524600Y-42183300D01*
X91580300Y-68351600D02*
X92931100Y-69702400D01*
X87971000Y-68351600D02*
X91580300Y-68351600D01*
X79373900Y-59754500D02*
X87971000Y-68351600D01*
X79373900Y-45082800D02*
X79373900Y-59754500D01*
%TO.N,/Row1*%
X49861100Y-40861800D02*
X47271100Y-40861800D01*
X52652500Y-40660400D02*
X52451100Y-40861800D01*
X58086400Y-40660400D02*
X52652500Y-40660400D01*
X59489200Y-42063200D02*
X58086400Y-40660400D01*
X60921600Y-42063200D02*
X59489200Y-42063200D01*
X61866600Y-43008200D02*
X60921600Y-42063200D01*
X61866600Y-44287400D02*
X61866600Y-43008200D01*
X63669900Y-46090700D02*
X61866600Y-44287400D01*
X70207400Y-46090700D02*
X63669900Y-46090700D01*
X71768800Y-44529300D02*
X70207400Y-46090700D01*
X72951100Y-44529300D02*
X71768800Y-44529300D01*
X49892900Y-40830000D02*
X49861100Y-40861800D01*
X52419300Y-40830000D02*
X49892900Y-40830000D01*
X52451100Y-40861800D02*
X52419300Y-40830000D01*
%TO.N,Net-(D2-A)*%
X60968600Y-59265300D02*
X60968600Y-48553400D01*
X63983200Y-62279900D02*
X60968600Y-59265300D01*
X66458600Y-62279900D02*
X63983200Y-62279900D01*
X73881100Y-69702400D02*
X66458600Y-62279900D01*
X73881100Y-71279300D02*
X73881100Y-69702400D01*
X45279000Y-42436800D02*
X44681100Y-42436800D01*
X46044200Y-43202000D02*
X45279000Y-42436800D01*
X48553900Y-43202000D02*
X46044200Y-43202000D01*
X48566100Y-43189800D02*
X48553900Y-43202000D01*
%TO.N,Net-(D1-A)*%
X54831100Y-64483200D02*
X54831100Y-71279300D01*
X37627700Y-47279800D02*
X54831100Y-64483200D01*
X36454900Y-47279800D02*
X37627700Y-47279800D01*
X36261900Y-47472800D02*
X36454900Y-47279800D01*
X34221100Y-47472800D02*
X36261900Y-47472800D01*
X33353700Y-46605400D02*
X34221100Y-47472800D01*
X33353700Y-46277000D02*
X33353700Y-46605400D01*
X34643300Y-44987400D02*
X33353700Y-46277000D01*
X37833100Y-44987400D02*
X34643300Y-44987400D01*
X40383700Y-42436800D02*
X37833100Y-44987400D01*
X42091100Y-42436800D02*
X40383700Y-42436800D01*
%TO.N,/Row0*%
X44681100Y-40861800D02*
X42091100Y-40861800D01*
X72468800Y-41507000D02*
X72468800Y-40073300D01*
X72951100Y-41989300D02*
X72468800Y-41507000D01*
X45469600Y-40073300D02*
X45572400Y-40073300D01*
X44681100Y-40861800D02*
X45469600Y-40073300D01*
%TD*%
M02*
