%TF.GenerationSoftware,KiCad,Pcbnew,7.0.10*%
%TF.CreationDate,2026-02-14T23:10:39-08:00*%
%TF.ProjectId,4kemp,346b656d-702e-46b6-9963-61645f706362,rev?*%
%TF.SameCoordinates,Original*%
%TF.FileFunction,Profile,NP*%
%FSLAX46Y46*%
G04 Gerber Fmt 4.6, Leading zero omitted, Abs format (unit mm)*
G04 Created by KiCad (PCBNEW 7.0.10) date 2026-02-14 23:10:39*
%MOMM*%
%LPD*%
G01*
G04 APERTURE LIST*
%TA.AperFunction,Profile*%
%ADD10C,0.100000*%
%TD*%
%TA.AperFunction,Profile*%
%ADD11C,0.025400*%
%TD*%
%TA.AperFunction,Profile*%
%ADD12C,0.050000*%
%TD*%
G04 APERTURE END LIST*
D10*
X82451100Y-40149300D02*
X82365314Y-61149300D01*
X115451100Y-92124500D02*
G75*
G03*
X116451100Y-91124545I0J1000000D01*
G01*
X41951100Y-39149296D02*
G75*
G03*
X32451100Y-50649300I234770J-9867854D01*
G01*
X46451100Y-64399300D02*
G75*
G03*
X43451100Y-64399300I-1500000J0D01*
G01*
X43451100Y-64399300D02*
G75*
G03*
X46451100Y-64399300I1500000J0D01*
G01*
X39951065Y-90124552D02*
G75*
G03*
X42451100Y-92174054I2500035J500052D01*
G01*
X82365319Y-61149300D02*
G75*
G03*
X83408206Y-62149300I1042881J43800D01*
G01*
X42451100Y-92174054D02*
X115451100Y-92124545D01*
X39951101Y-90124545D02*
X32451100Y-50649300D01*
X83408206Y-62149300D02*
X115451100Y-62149300D01*
X113451100Y-64649300D02*
G75*
G03*
X110451100Y-64649300I-1500000J0D01*
G01*
X110451100Y-64649300D02*
G75*
G03*
X113451100Y-64649300I1500000J0D01*
G01*
X82451100Y-40149300D02*
G75*
G03*
X81451100Y-39149300I-1000000J0D01*
G01*
X116451100Y-63149300D02*
X116451100Y-91124545D01*
X81451100Y-39149300D02*
X41951100Y-39149300D01*
X116451100Y-63149300D02*
G75*
G03*
X115451100Y-62149300I-1000000J0D01*
G01*
X79951100Y-43149300D02*
G75*
G03*
X76951100Y-43149300I-1500000J0D01*
G01*
X76951100Y-43149300D02*
G75*
G03*
X79951100Y-43149300I1500000J0D01*
G01*
D11*
%TO.C,LED3*%
X88290000Y-79560000D02*
X88290000Y-82260000D01*
X88190000Y-82360000D02*
X85090000Y-82360000D01*
X88190000Y-79460000D02*
X85090000Y-79460000D01*
X84990000Y-82260000D02*
X84990000Y-79560000D01*
D12*
X88190000Y-82360000D02*
G75*
G03*
X88290000Y-82260000I1J99999D01*
G01*
X88290000Y-79560000D02*
G75*
G03*
X88190000Y-79460000I-99999J1D01*
G01*
X84990000Y-82260000D02*
G75*
G03*
X85090000Y-82360000I100000J0D01*
G01*
X85090000Y-79460000D02*
G75*
G03*
X84990000Y-79560000I0J-100000D01*
G01*
D11*
%TO.C,LED2*%
X69240000Y-79550000D02*
X69240000Y-82250000D01*
X69140000Y-82350000D02*
X66040000Y-82350000D01*
X69140000Y-79450000D02*
X66040000Y-79450000D01*
X65940000Y-82250000D02*
X65940000Y-79550000D01*
D12*
X69140000Y-82350000D02*
G75*
G03*
X69240000Y-82250000I1J99999D01*
G01*
X69240000Y-79550000D02*
G75*
G03*
X69140000Y-79450000I-99999J1D01*
G01*
X65940000Y-82250000D02*
G75*
G03*
X66040000Y-82350000I100000J0D01*
G01*
X66040000Y-79450000D02*
G75*
G03*
X65940000Y-79550000I0J-100000D01*
G01*
D11*
%TO.C,LED4*%
X107340000Y-79560000D02*
X107340000Y-82260000D01*
X107240000Y-82360000D02*
X104140000Y-82360000D01*
X107240000Y-79460000D02*
X104140000Y-79460000D01*
X104040000Y-82260000D02*
X104040000Y-79560000D01*
D12*
X107240000Y-82360000D02*
G75*
G03*
X107340000Y-82260000I1J99999D01*
G01*
X107340000Y-79560000D02*
G75*
G03*
X107240000Y-79460000I-99999J1D01*
G01*
X104040000Y-82260000D02*
G75*
G03*
X104140000Y-82360000I100000J0D01*
G01*
X104140000Y-79460000D02*
G75*
G03*
X104040000Y-79560000I0J-100000D01*
G01*
D11*
%TO.C,LED1*%
X50190000Y-79560000D02*
X50190000Y-82260000D01*
X50090000Y-82360000D02*
X46990000Y-82360000D01*
X50090000Y-79460000D02*
X46990000Y-79460000D01*
X46890000Y-82260000D02*
X46890000Y-79560000D01*
D12*
X50090000Y-82360000D02*
G75*
G03*
X50190000Y-82260000I1J99999D01*
G01*
X50190000Y-79560000D02*
G75*
G03*
X50090000Y-79460000I-99999J1D01*
G01*
X46890000Y-82260000D02*
G75*
G03*
X46990000Y-82360000I100000J0D01*
G01*
X46990000Y-79460000D02*
G75*
G03*
X46890000Y-79560000I0J-100000D01*
G01*
%TD*%
M02*
