%TF.GenerationSoftware,KiCad,Pcbnew,7.0.10*%
%TF.CreationDate,2026-02-14T23:10:39-08:00*%
%TF.ProjectId,4kemp,346b656d-702e-46b6-9963-61645f706362,rev?*%
%TF.SameCoordinates,Original*%
%TF.FileFunction,Legend,Bot*%
%TF.FilePolarity,Positive*%
%FSLAX46Y46*%
G04 Gerber Fmt 4.6, Leading zero omitted, Abs format (unit mm)*
G04 Created by KiCad (PCBNEW 7.0.10) date 2026-02-14 23:10:39*
%MOMM*%
%LPD*%
G01*
G04 APERTURE LIST*
%ADD10C,0.150000*%
%ADD11C,0.120000*%
%ADD12C,0.152400*%
%ADD13C,0.127000*%
%ADD14C,0.200000*%
G04 APERTURE END LIST*
D10*
X68924432Y-68511500D02*
X68781575Y-68559119D01*
X68781575Y-68559119D02*
X68543480Y-68559119D01*
X68543480Y-68559119D02*
X68448242Y-68511500D01*
X68448242Y-68511500D02*
X68400623Y-68463880D01*
X68400623Y-68463880D02*
X68353004Y-68368642D01*
X68353004Y-68368642D02*
X68353004Y-68273404D01*
X68353004Y-68273404D02*
X68400623Y-68178166D01*
X68400623Y-68178166D02*
X68448242Y-68130547D01*
X68448242Y-68130547D02*
X68543480Y-68082928D01*
X68543480Y-68082928D02*
X68733956Y-68035309D01*
X68733956Y-68035309D02*
X68829194Y-67987690D01*
X68829194Y-67987690D02*
X68876813Y-67940071D01*
X68876813Y-67940071D02*
X68924432Y-67844833D01*
X68924432Y-67844833D02*
X68924432Y-67749595D01*
X68924432Y-67749595D02*
X68876813Y-67654357D01*
X68876813Y-67654357D02*
X68829194Y-67606738D01*
X68829194Y-67606738D02*
X68733956Y-67559119D01*
X68733956Y-67559119D02*
X68495861Y-67559119D01*
X68495861Y-67559119D02*
X68353004Y-67606738D01*
X68019670Y-67559119D02*
X67781575Y-68559119D01*
X67781575Y-68559119D02*
X67591099Y-67844833D01*
X67591099Y-67844833D02*
X67400623Y-68559119D01*
X67400623Y-68559119D02*
X67162528Y-67559119D01*
X66829194Y-67654357D02*
X66781575Y-67606738D01*
X66781575Y-67606738D02*
X66686337Y-67559119D01*
X66686337Y-67559119D02*
X66448242Y-67559119D01*
X66448242Y-67559119D02*
X66353004Y-67606738D01*
X66353004Y-67606738D02*
X66305385Y-67654357D01*
X66305385Y-67654357D02*
X66257766Y-67749595D01*
X66257766Y-67749595D02*
X66257766Y-67844833D01*
X66257766Y-67844833D02*
X66305385Y-67987690D01*
X66305385Y-67987690D02*
X66876813Y-68559119D01*
X66876813Y-68559119D02*
X66257766Y-68559119D01*
X87974432Y-68511500D02*
X87831575Y-68559119D01*
X87831575Y-68559119D02*
X87593480Y-68559119D01*
X87593480Y-68559119D02*
X87498242Y-68511500D01*
X87498242Y-68511500D02*
X87450623Y-68463880D01*
X87450623Y-68463880D02*
X87403004Y-68368642D01*
X87403004Y-68368642D02*
X87403004Y-68273404D01*
X87403004Y-68273404D02*
X87450623Y-68178166D01*
X87450623Y-68178166D02*
X87498242Y-68130547D01*
X87498242Y-68130547D02*
X87593480Y-68082928D01*
X87593480Y-68082928D02*
X87783956Y-68035309D01*
X87783956Y-68035309D02*
X87879194Y-67987690D01*
X87879194Y-67987690D02*
X87926813Y-67940071D01*
X87926813Y-67940071D02*
X87974432Y-67844833D01*
X87974432Y-67844833D02*
X87974432Y-67749595D01*
X87974432Y-67749595D02*
X87926813Y-67654357D01*
X87926813Y-67654357D02*
X87879194Y-67606738D01*
X87879194Y-67606738D02*
X87783956Y-67559119D01*
X87783956Y-67559119D02*
X87545861Y-67559119D01*
X87545861Y-67559119D02*
X87403004Y-67606738D01*
X87069670Y-67559119D02*
X86831575Y-68559119D01*
X86831575Y-68559119D02*
X86641099Y-67844833D01*
X86641099Y-67844833D02*
X86450623Y-68559119D01*
X86450623Y-68559119D02*
X86212528Y-67559119D01*
X85926813Y-67559119D02*
X85307766Y-67559119D01*
X85307766Y-67559119D02*
X85641099Y-67940071D01*
X85641099Y-67940071D02*
X85498242Y-67940071D01*
X85498242Y-67940071D02*
X85403004Y-67987690D01*
X85403004Y-67987690D02*
X85355385Y-68035309D01*
X85355385Y-68035309D02*
X85307766Y-68130547D01*
X85307766Y-68130547D02*
X85307766Y-68368642D01*
X85307766Y-68368642D02*
X85355385Y-68463880D01*
X85355385Y-68463880D02*
X85403004Y-68511500D01*
X85403004Y-68511500D02*
X85498242Y-68559119D01*
X85498242Y-68559119D02*
X85783956Y-68559119D01*
X85783956Y-68559119D02*
X85879194Y-68511500D01*
X85879194Y-68511500D02*
X85926813Y-68463880D01*
X107024432Y-68511500D02*
X106881575Y-68559119D01*
X106881575Y-68559119D02*
X106643480Y-68559119D01*
X106643480Y-68559119D02*
X106548242Y-68511500D01*
X106548242Y-68511500D02*
X106500623Y-68463880D01*
X106500623Y-68463880D02*
X106453004Y-68368642D01*
X106453004Y-68368642D02*
X106453004Y-68273404D01*
X106453004Y-68273404D02*
X106500623Y-68178166D01*
X106500623Y-68178166D02*
X106548242Y-68130547D01*
X106548242Y-68130547D02*
X106643480Y-68082928D01*
X106643480Y-68082928D02*
X106833956Y-68035309D01*
X106833956Y-68035309D02*
X106929194Y-67987690D01*
X106929194Y-67987690D02*
X106976813Y-67940071D01*
X106976813Y-67940071D02*
X107024432Y-67844833D01*
X107024432Y-67844833D02*
X107024432Y-67749595D01*
X107024432Y-67749595D02*
X106976813Y-67654357D01*
X106976813Y-67654357D02*
X106929194Y-67606738D01*
X106929194Y-67606738D02*
X106833956Y-67559119D01*
X106833956Y-67559119D02*
X106595861Y-67559119D01*
X106595861Y-67559119D02*
X106453004Y-67606738D01*
X106119670Y-67559119D02*
X105881575Y-68559119D01*
X105881575Y-68559119D02*
X105691099Y-67844833D01*
X105691099Y-67844833D02*
X105500623Y-68559119D01*
X105500623Y-68559119D02*
X105262528Y-67559119D01*
X104453004Y-67892452D02*
X104453004Y-68559119D01*
X104691099Y-67511500D02*
X104929194Y-68225785D01*
X104929194Y-68225785D02*
X104310147Y-68225785D01*
X49874432Y-68511500D02*
X49731575Y-68559119D01*
X49731575Y-68559119D02*
X49493480Y-68559119D01*
X49493480Y-68559119D02*
X49398242Y-68511500D01*
X49398242Y-68511500D02*
X49350623Y-68463880D01*
X49350623Y-68463880D02*
X49303004Y-68368642D01*
X49303004Y-68368642D02*
X49303004Y-68273404D01*
X49303004Y-68273404D02*
X49350623Y-68178166D01*
X49350623Y-68178166D02*
X49398242Y-68130547D01*
X49398242Y-68130547D02*
X49493480Y-68082928D01*
X49493480Y-68082928D02*
X49683956Y-68035309D01*
X49683956Y-68035309D02*
X49779194Y-67987690D01*
X49779194Y-67987690D02*
X49826813Y-67940071D01*
X49826813Y-67940071D02*
X49874432Y-67844833D01*
X49874432Y-67844833D02*
X49874432Y-67749595D01*
X49874432Y-67749595D02*
X49826813Y-67654357D01*
X49826813Y-67654357D02*
X49779194Y-67606738D01*
X49779194Y-67606738D02*
X49683956Y-67559119D01*
X49683956Y-67559119D02*
X49445861Y-67559119D01*
X49445861Y-67559119D02*
X49303004Y-67606738D01*
X48969670Y-67559119D02*
X48731575Y-68559119D01*
X48731575Y-68559119D02*
X48541099Y-67844833D01*
X48541099Y-67844833D02*
X48350623Y-68559119D01*
X48350623Y-68559119D02*
X48112528Y-67559119D01*
X47207766Y-68559119D02*
X47779194Y-68559119D01*
X47493480Y-68559119D02*
X47493480Y-67559119D01*
X47493480Y-67559119D02*
X47588718Y-67701976D01*
X47588718Y-67701976D02*
X47683956Y-67797214D01*
X47683956Y-67797214D02*
X47779194Y-67844833D01*
X45155919Y-43411205D02*
X44155919Y-43411205D01*
X44155919Y-43411205D02*
X44155919Y-43649300D01*
X44155919Y-43649300D02*
X44203538Y-43792157D01*
X44203538Y-43792157D02*
X44298776Y-43887395D01*
X44298776Y-43887395D02*
X44394014Y-43935014D01*
X44394014Y-43935014D02*
X44584490Y-43982633D01*
X44584490Y-43982633D02*
X44727347Y-43982633D01*
X44727347Y-43982633D02*
X44917823Y-43935014D01*
X44917823Y-43935014D02*
X45013061Y-43887395D01*
X45013061Y-43887395D02*
X45108300Y-43792157D01*
X45108300Y-43792157D02*
X45155919Y-43649300D01*
X45155919Y-43649300D02*
X45155919Y-43411205D01*
X44251157Y-44363586D02*
X44203538Y-44411205D01*
X44203538Y-44411205D02*
X44155919Y-44506443D01*
X44155919Y-44506443D02*
X44155919Y-44744538D01*
X44155919Y-44744538D02*
X44203538Y-44839776D01*
X44203538Y-44839776D02*
X44251157Y-44887395D01*
X44251157Y-44887395D02*
X44346395Y-44935014D01*
X44346395Y-44935014D02*
X44441633Y-44935014D01*
X44441633Y-44935014D02*
X44584490Y-44887395D01*
X44584490Y-44887395D02*
X45155919Y-44315967D01*
X45155919Y-44315967D02*
X45155919Y-44935014D01*
X82522819Y-79790952D02*
X82522819Y-79314762D01*
X82522819Y-79314762D02*
X81522819Y-79314762D01*
X81999009Y-80124286D02*
X81999009Y-80457619D01*
X82522819Y-80600476D02*
X82522819Y-80124286D01*
X82522819Y-80124286D02*
X81522819Y-80124286D01*
X81522819Y-80124286D02*
X81522819Y-80600476D01*
X82522819Y-81029048D02*
X81522819Y-81029048D01*
X81522819Y-81029048D02*
X81522819Y-81267143D01*
X81522819Y-81267143D02*
X81570438Y-81410000D01*
X81570438Y-81410000D02*
X81665676Y-81505238D01*
X81665676Y-81505238D02*
X81760914Y-81552857D01*
X81760914Y-81552857D02*
X81951390Y-81600476D01*
X81951390Y-81600476D02*
X82094247Y-81600476D01*
X82094247Y-81600476D02*
X82284723Y-81552857D01*
X82284723Y-81552857D02*
X82379961Y-81505238D01*
X82379961Y-81505238D02*
X82475200Y-81410000D01*
X82475200Y-81410000D02*
X82522819Y-81267143D01*
X82522819Y-81267143D02*
X82522819Y-81029048D01*
X81522819Y-81933810D02*
X81522819Y-82552857D01*
X81522819Y-82552857D02*
X81903771Y-82219524D01*
X81903771Y-82219524D02*
X81903771Y-82362381D01*
X81903771Y-82362381D02*
X81951390Y-82457619D01*
X81951390Y-82457619D02*
X81999009Y-82505238D01*
X81999009Y-82505238D02*
X82094247Y-82552857D01*
X82094247Y-82552857D02*
X82332342Y-82552857D01*
X82332342Y-82552857D02*
X82427580Y-82505238D01*
X82427580Y-82505238D02*
X82475200Y-82457619D01*
X82475200Y-82457619D02*
X82522819Y-82362381D01*
X82522819Y-82362381D02*
X82522819Y-82076667D01*
X82522819Y-82076667D02*
X82475200Y-81981429D01*
X82475200Y-81981429D02*
X82427580Y-81933810D01*
X47655919Y-43411205D02*
X46655919Y-43411205D01*
X46655919Y-43411205D02*
X46655919Y-43649300D01*
X46655919Y-43649300D02*
X46703538Y-43792157D01*
X46703538Y-43792157D02*
X46798776Y-43887395D01*
X46798776Y-43887395D02*
X46894014Y-43935014D01*
X46894014Y-43935014D02*
X47084490Y-43982633D01*
X47084490Y-43982633D02*
X47227347Y-43982633D01*
X47227347Y-43982633D02*
X47417823Y-43935014D01*
X47417823Y-43935014D02*
X47513061Y-43887395D01*
X47513061Y-43887395D02*
X47608300Y-43792157D01*
X47608300Y-43792157D02*
X47655919Y-43649300D01*
X47655919Y-43649300D02*
X47655919Y-43411205D01*
X46655919Y-44315967D02*
X46655919Y-44935014D01*
X46655919Y-44935014D02*
X47036871Y-44601681D01*
X47036871Y-44601681D02*
X47036871Y-44744538D01*
X47036871Y-44744538D02*
X47084490Y-44839776D01*
X47084490Y-44839776D02*
X47132109Y-44887395D01*
X47132109Y-44887395D02*
X47227347Y-44935014D01*
X47227347Y-44935014D02*
X47465442Y-44935014D01*
X47465442Y-44935014D02*
X47560680Y-44887395D01*
X47560680Y-44887395D02*
X47608300Y-44839776D01*
X47608300Y-44839776D02*
X47655919Y-44744538D01*
X47655919Y-44744538D02*
X47655919Y-44458824D01*
X47655919Y-44458824D02*
X47608300Y-44363586D01*
X47608300Y-44363586D02*
X47560680Y-44315967D01*
X53689194Y-91454819D02*
X53689194Y-90454819D01*
X53689194Y-90454819D02*
X53451099Y-90454819D01*
X53451099Y-90454819D02*
X53308242Y-90502438D01*
X53308242Y-90502438D02*
X53213004Y-90597676D01*
X53213004Y-90597676D02*
X53165385Y-90692914D01*
X53165385Y-90692914D02*
X53117766Y-90883390D01*
X53117766Y-90883390D02*
X53117766Y-91026247D01*
X53117766Y-91026247D02*
X53165385Y-91216723D01*
X53165385Y-91216723D02*
X53213004Y-91311961D01*
X53213004Y-91311961D02*
X53308242Y-91407200D01*
X53308242Y-91407200D02*
X53451099Y-91454819D01*
X53451099Y-91454819D02*
X53689194Y-91454819D01*
X52546337Y-90883390D02*
X52641575Y-90835771D01*
X52641575Y-90835771D02*
X52689194Y-90788152D01*
X52689194Y-90788152D02*
X52736813Y-90692914D01*
X52736813Y-90692914D02*
X52736813Y-90645295D01*
X52736813Y-90645295D02*
X52689194Y-90550057D01*
X52689194Y-90550057D02*
X52641575Y-90502438D01*
X52641575Y-90502438D02*
X52546337Y-90454819D01*
X52546337Y-90454819D02*
X52355861Y-90454819D01*
X52355861Y-90454819D02*
X52260623Y-90502438D01*
X52260623Y-90502438D02*
X52213004Y-90550057D01*
X52213004Y-90550057D02*
X52165385Y-90645295D01*
X52165385Y-90645295D02*
X52165385Y-90692914D01*
X52165385Y-90692914D02*
X52213004Y-90788152D01*
X52213004Y-90788152D02*
X52260623Y-90835771D01*
X52260623Y-90835771D02*
X52355861Y-90883390D01*
X52355861Y-90883390D02*
X52546337Y-90883390D01*
X52546337Y-90883390D02*
X52641575Y-90931009D01*
X52641575Y-90931009D02*
X52689194Y-90978628D01*
X52689194Y-90978628D02*
X52736813Y-91073866D01*
X52736813Y-91073866D02*
X52736813Y-91264342D01*
X52736813Y-91264342D02*
X52689194Y-91359580D01*
X52689194Y-91359580D02*
X52641575Y-91407200D01*
X52641575Y-91407200D02*
X52546337Y-91454819D01*
X52546337Y-91454819D02*
X52355861Y-91454819D01*
X52355861Y-91454819D02*
X52260623Y-91407200D01*
X52260623Y-91407200D02*
X52213004Y-91359580D01*
X52213004Y-91359580D02*
X52165385Y-91264342D01*
X52165385Y-91264342D02*
X52165385Y-91073866D01*
X52165385Y-91073866D02*
X52213004Y-90978628D01*
X52213004Y-90978628D02*
X52260623Y-90931009D01*
X52260623Y-90931009D02*
X52355861Y-90883390D01*
X71358623Y-35677595D02*
X71358623Y-36325214D01*
X71358623Y-36325214D02*
X71320528Y-36401404D01*
X71320528Y-36401404D02*
X71282433Y-36439500D01*
X71282433Y-36439500D02*
X71206242Y-36477595D01*
X71206242Y-36477595D02*
X71053861Y-36477595D01*
X71053861Y-36477595D02*
X70977671Y-36439500D01*
X70977671Y-36439500D02*
X70939576Y-36401404D01*
X70939576Y-36401404D02*
X70901480Y-36325214D01*
X70901480Y-36325214D02*
X70901480Y-35677595D01*
X70101481Y-36477595D02*
X70558624Y-36477595D01*
X70330052Y-36477595D02*
X70330052Y-35677595D01*
X70330052Y-35677595D02*
X70406243Y-35791880D01*
X70406243Y-35791880D02*
X70482433Y-35868071D01*
X70482433Y-35868071D02*
X70558624Y-35906166D01*
X80189194Y-91454819D02*
X80189194Y-90454819D01*
X80189194Y-90454819D02*
X79951099Y-90454819D01*
X79951099Y-90454819D02*
X79808242Y-90502438D01*
X79808242Y-90502438D02*
X79713004Y-90597676D01*
X79713004Y-90597676D02*
X79665385Y-90692914D01*
X79665385Y-90692914D02*
X79617766Y-90883390D01*
X79617766Y-90883390D02*
X79617766Y-91026247D01*
X79617766Y-91026247D02*
X79665385Y-91216723D01*
X79665385Y-91216723D02*
X79713004Y-91311961D01*
X79713004Y-91311961D02*
X79808242Y-91407200D01*
X79808242Y-91407200D02*
X79951099Y-91454819D01*
X79951099Y-91454819D02*
X80189194Y-91454819D01*
X79141575Y-91454819D02*
X78951099Y-91454819D01*
X78951099Y-91454819D02*
X78855861Y-91407200D01*
X78855861Y-91407200D02*
X78808242Y-91359580D01*
X78808242Y-91359580D02*
X78713004Y-91216723D01*
X78713004Y-91216723D02*
X78665385Y-91026247D01*
X78665385Y-91026247D02*
X78665385Y-90645295D01*
X78665385Y-90645295D02*
X78713004Y-90550057D01*
X78713004Y-90550057D02*
X78760623Y-90502438D01*
X78760623Y-90502438D02*
X78855861Y-90454819D01*
X78855861Y-90454819D02*
X79046337Y-90454819D01*
X79046337Y-90454819D02*
X79141575Y-90502438D01*
X79141575Y-90502438D02*
X79189194Y-90550057D01*
X79189194Y-90550057D02*
X79236813Y-90645295D01*
X79236813Y-90645295D02*
X79236813Y-90883390D01*
X79236813Y-90883390D02*
X79189194Y-90978628D01*
X79189194Y-90978628D02*
X79141575Y-91026247D01*
X79141575Y-91026247D02*
X79046337Y-91073866D01*
X79046337Y-91073866D02*
X78855861Y-91073866D01*
X78855861Y-91073866D02*
X78760623Y-91026247D01*
X78760623Y-91026247D02*
X78713004Y-90978628D01*
X78713004Y-90978628D02*
X78665385Y-90883390D01*
X42655919Y-43411205D02*
X41655919Y-43411205D01*
X41655919Y-43411205D02*
X41655919Y-43649300D01*
X41655919Y-43649300D02*
X41703538Y-43792157D01*
X41703538Y-43792157D02*
X41798776Y-43887395D01*
X41798776Y-43887395D02*
X41894014Y-43935014D01*
X41894014Y-43935014D02*
X42084490Y-43982633D01*
X42084490Y-43982633D02*
X42227347Y-43982633D01*
X42227347Y-43982633D02*
X42417823Y-43935014D01*
X42417823Y-43935014D02*
X42513061Y-43887395D01*
X42513061Y-43887395D02*
X42608300Y-43792157D01*
X42608300Y-43792157D02*
X42655919Y-43649300D01*
X42655919Y-43649300D02*
X42655919Y-43411205D01*
X42655919Y-44935014D02*
X42655919Y-44363586D01*
X42655919Y-44649300D02*
X41655919Y-44649300D01*
X41655919Y-44649300D02*
X41798776Y-44554062D01*
X41798776Y-44554062D02*
X41894014Y-44458824D01*
X41894014Y-44458824D02*
X41941633Y-44363586D01*
X58634819Y-62083333D02*
X58158628Y-61750000D01*
X58634819Y-61511905D02*
X57634819Y-61511905D01*
X57634819Y-61511905D02*
X57634819Y-61892857D01*
X57634819Y-61892857D02*
X57682438Y-61988095D01*
X57682438Y-61988095D02*
X57730057Y-62035714D01*
X57730057Y-62035714D02*
X57825295Y-62083333D01*
X57825295Y-62083333D02*
X57968152Y-62083333D01*
X57968152Y-62083333D02*
X58063390Y-62035714D01*
X58063390Y-62035714D02*
X58111009Y-61988095D01*
X58111009Y-61988095D02*
X58158628Y-61892857D01*
X58158628Y-61892857D02*
X58158628Y-61511905D01*
X58634819Y-63035714D02*
X58634819Y-62464286D01*
X58634819Y-62750000D02*
X57634819Y-62750000D01*
X57634819Y-62750000D02*
X57777676Y-62654762D01*
X57777676Y-62654762D02*
X57872914Y-62559524D01*
X57872914Y-62559524D02*
X57920533Y-62464286D01*
X52905919Y-43411205D02*
X51905919Y-43411205D01*
X51905919Y-43411205D02*
X51905919Y-43649300D01*
X51905919Y-43649300D02*
X51953538Y-43792157D01*
X51953538Y-43792157D02*
X52048776Y-43887395D01*
X52048776Y-43887395D02*
X52144014Y-43935014D01*
X52144014Y-43935014D02*
X52334490Y-43982633D01*
X52334490Y-43982633D02*
X52477347Y-43982633D01*
X52477347Y-43982633D02*
X52667823Y-43935014D01*
X52667823Y-43935014D02*
X52763061Y-43887395D01*
X52763061Y-43887395D02*
X52858300Y-43792157D01*
X52858300Y-43792157D02*
X52905919Y-43649300D01*
X52905919Y-43649300D02*
X52905919Y-43411205D01*
X51905919Y-44887395D02*
X51905919Y-44411205D01*
X51905919Y-44411205D02*
X52382109Y-44363586D01*
X52382109Y-44363586D02*
X52334490Y-44411205D01*
X52334490Y-44411205D02*
X52286871Y-44506443D01*
X52286871Y-44506443D02*
X52286871Y-44744538D01*
X52286871Y-44744538D02*
X52334490Y-44839776D01*
X52334490Y-44839776D02*
X52382109Y-44887395D01*
X52382109Y-44887395D02*
X52477347Y-44935014D01*
X52477347Y-44935014D02*
X52715442Y-44935014D01*
X52715442Y-44935014D02*
X52810680Y-44887395D01*
X52810680Y-44887395D02*
X52858300Y-44839776D01*
X52858300Y-44839776D02*
X52905919Y-44744538D01*
X52905919Y-44744538D02*
X52905919Y-44506443D01*
X52905919Y-44506443D02*
X52858300Y-44411205D01*
X52858300Y-44411205D02*
X52810680Y-44363586D01*
X105165385Y-91454819D02*
X105165385Y-90454819D01*
X105165385Y-90454819D02*
X104927290Y-90454819D01*
X104927290Y-90454819D02*
X104784433Y-90502438D01*
X104784433Y-90502438D02*
X104689195Y-90597676D01*
X104689195Y-90597676D02*
X104641576Y-90692914D01*
X104641576Y-90692914D02*
X104593957Y-90883390D01*
X104593957Y-90883390D02*
X104593957Y-91026247D01*
X104593957Y-91026247D02*
X104641576Y-91216723D01*
X104641576Y-91216723D02*
X104689195Y-91311961D01*
X104689195Y-91311961D02*
X104784433Y-91407200D01*
X104784433Y-91407200D02*
X104927290Y-91454819D01*
X104927290Y-91454819D02*
X105165385Y-91454819D01*
X103641576Y-91454819D02*
X104213004Y-91454819D01*
X103927290Y-91454819D02*
X103927290Y-90454819D01*
X103927290Y-90454819D02*
X104022528Y-90597676D01*
X104022528Y-90597676D02*
X104117766Y-90692914D01*
X104117766Y-90692914D02*
X104213004Y-90740533D01*
X103022528Y-90454819D02*
X102927290Y-90454819D01*
X102927290Y-90454819D02*
X102832052Y-90502438D01*
X102832052Y-90502438D02*
X102784433Y-90550057D01*
X102784433Y-90550057D02*
X102736814Y-90645295D01*
X102736814Y-90645295D02*
X102689195Y-90835771D01*
X102689195Y-90835771D02*
X102689195Y-91073866D01*
X102689195Y-91073866D02*
X102736814Y-91264342D01*
X102736814Y-91264342D02*
X102784433Y-91359580D01*
X102784433Y-91359580D02*
X102832052Y-91407200D01*
X102832052Y-91407200D02*
X102927290Y-91454819D01*
X102927290Y-91454819D02*
X103022528Y-91454819D01*
X103022528Y-91454819D02*
X103117766Y-91407200D01*
X103117766Y-91407200D02*
X103165385Y-91359580D01*
X103165385Y-91359580D02*
X103213004Y-91264342D01*
X103213004Y-91264342D02*
X103260623Y-91073866D01*
X103260623Y-91073866D02*
X103260623Y-90835771D01*
X103260623Y-90835771D02*
X103213004Y-90645295D01*
X103213004Y-90645295D02*
X103165385Y-90550057D01*
X103165385Y-90550057D02*
X103117766Y-90502438D01*
X103117766Y-90502438D02*
X103022528Y-90454819D01*
X63472819Y-79780952D02*
X63472819Y-79304762D01*
X63472819Y-79304762D02*
X62472819Y-79304762D01*
X62949009Y-80114286D02*
X62949009Y-80447619D01*
X63472819Y-80590476D02*
X63472819Y-80114286D01*
X63472819Y-80114286D02*
X62472819Y-80114286D01*
X62472819Y-80114286D02*
X62472819Y-80590476D01*
X63472819Y-81019048D02*
X62472819Y-81019048D01*
X62472819Y-81019048D02*
X62472819Y-81257143D01*
X62472819Y-81257143D02*
X62520438Y-81400000D01*
X62520438Y-81400000D02*
X62615676Y-81495238D01*
X62615676Y-81495238D02*
X62710914Y-81542857D01*
X62710914Y-81542857D02*
X62901390Y-81590476D01*
X62901390Y-81590476D02*
X63044247Y-81590476D01*
X63044247Y-81590476D02*
X63234723Y-81542857D01*
X63234723Y-81542857D02*
X63329961Y-81495238D01*
X63329961Y-81495238D02*
X63425200Y-81400000D01*
X63425200Y-81400000D02*
X63472819Y-81257143D01*
X63472819Y-81257143D02*
X63472819Y-81019048D01*
X62568057Y-81971429D02*
X62520438Y-82019048D01*
X62520438Y-82019048D02*
X62472819Y-82114286D01*
X62472819Y-82114286D02*
X62472819Y-82352381D01*
X62472819Y-82352381D02*
X62520438Y-82447619D01*
X62520438Y-82447619D02*
X62568057Y-82495238D01*
X62568057Y-82495238D02*
X62663295Y-82542857D01*
X62663295Y-82542857D02*
X62758533Y-82542857D01*
X62758533Y-82542857D02*
X62901390Y-82495238D01*
X62901390Y-82495238D02*
X63472819Y-81923810D01*
X63472819Y-81923810D02*
X63472819Y-82542857D01*
X36322071Y-67385827D02*
X37287997Y-67127008D01*
X37287997Y-67127008D02*
X37226373Y-66897026D01*
X37226373Y-66897026D02*
X37143403Y-66771361D01*
X37143403Y-66771361D02*
X37026760Y-66704018D01*
X37026760Y-66704018D02*
X36922443Y-66682671D01*
X36922443Y-66682671D02*
X36726132Y-66685973D01*
X36726132Y-66685973D02*
X36588143Y-66722947D01*
X36588143Y-66722947D02*
X36416481Y-66818242D01*
X36416481Y-66818242D02*
X36336813Y-66888888D01*
X36336813Y-66888888D02*
X36269470Y-67005531D01*
X36269470Y-67005531D02*
X36260447Y-67155845D01*
X36260447Y-67155845D02*
X36322071Y-67385827D01*
X37053827Y-66253075D02*
X36881281Y-65609125D01*
X36881281Y-65609125D02*
X36026278Y-66281912D01*
X50405919Y-43411205D02*
X49405919Y-43411205D01*
X49405919Y-43411205D02*
X49405919Y-43649300D01*
X49405919Y-43649300D02*
X49453538Y-43792157D01*
X49453538Y-43792157D02*
X49548776Y-43887395D01*
X49548776Y-43887395D02*
X49644014Y-43935014D01*
X49644014Y-43935014D02*
X49834490Y-43982633D01*
X49834490Y-43982633D02*
X49977347Y-43982633D01*
X49977347Y-43982633D02*
X50167823Y-43935014D01*
X50167823Y-43935014D02*
X50263061Y-43887395D01*
X50263061Y-43887395D02*
X50358300Y-43792157D01*
X50358300Y-43792157D02*
X50405919Y-43649300D01*
X50405919Y-43649300D02*
X50405919Y-43411205D01*
X49739252Y-44839776D02*
X50405919Y-44839776D01*
X49358300Y-44601681D02*
X50072585Y-44363586D01*
X50072585Y-44363586D02*
X50072585Y-44982633D01*
X101572819Y-79790952D02*
X101572819Y-79314762D01*
X101572819Y-79314762D02*
X100572819Y-79314762D01*
X101049009Y-80124286D02*
X101049009Y-80457619D01*
X101572819Y-80600476D02*
X101572819Y-80124286D01*
X101572819Y-80124286D02*
X100572819Y-80124286D01*
X100572819Y-80124286D02*
X100572819Y-80600476D01*
X101572819Y-81029048D02*
X100572819Y-81029048D01*
X100572819Y-81029048D02*
X100572819Y-81267143D01*
X100572819Y-81267143D02*
X100620438Y-81410000D01*
X100620438Y-81410000D02*
X100715676Y-81505238D01*
X100715676Y-81505238D02*
X100810914Y-81552857D01*
X100810914Y-81552857D02*
X101001390Y-81600476D01*
X101001390Y-81600476D02*
X101144247Y-81600476D01*
X101144247Y-81600476D02*
X101334723Y-81552857D01*
X101334723Y-81552857D02*
X101429961Y-81505238D01*
X101429961Y-81505238D02*
X101525200Y-81410000D01*
X101525200Y-81410000D02*
X101572819Y-81267143D01*
X101572819Y-81267143D02*
X101572819Y-81029048D01*
X100906152Y-82457619D02*
X101572819Y-82457619D01*
X100525200Y-82219524D02*
X101239485Y-81981429D01*
X101239485Y-81981429D02*
X101239485Y-82600476D01*
X44422819Y-79790952D02*
X44422819Y-79314762D01*
X44422819Y-79314762D02*
X43422819Y-79314762D01*
X43899009Y-80124286D02*
X43899009Y-80457619D01*
X44422819Y-80600476D02*
X44422819Y-80124286D01*
X44422819Y-80124286D02*
X43422819Y-80124286D01*
X43422819Y-80124286D02*
X43422819Y-80600476D01*
X44422819Y-81029048D02*
X43422819Y-81029048D01*
X43422819Y-81029048D02*
X43422819Y-81267143D01*
X43422819Y-81267143D02*
X43470438Y-81410000D01*
X43470438Y-81410000D02*
X43565676Y-81505238D01*
X43565676Y-81505238D02*
X43660914Y-81552857D01*
X43660914Y-81552857D02*
X43851390Y-81600476D01*
X43851390Y-81600476D02*
X43994247Y-81600476D01*
X43994247Y-81600476D02*
X44184723Y-81552857D01*
X44184723Y-81552857D02*
X44279961Y-81505238D01*
X44279961Y-81505238D02*
X44375200Y-81410000D01*
X44375200Y-81410000D02*
X44422819Y-81267143D01*
X44422819Y-81267143D02*
X44422819Y-81029048D01*
X44422819Y-82552857D02*
X44422819Y-81981429D01*
X44422819Y-82267143D02*
X43422819Y-82267143D01*
X43422819Y-82267143D02*
X43565676Y-82171905D01*
X43565676Y-82171905D02*
X43660914Y-82076667D01*
X43660914Y-82076667D02*
X43708533Y-81981429D01*
X35819743Y-42974119D02*
X35112636Y-42267013D01*
X35112636Y-42267013D02*
X34944277Y-42435371D01*
X34944277Y-42435371D02*
X34876934Y-42570058D01*
X34876934Y-42570058D02*
X34876934Y-42704745D01*
X34876934Y-42704745D02*
X34910606Y-42805761D01*
X34910606Y-42805761D02*
X35011621Y-42974119D01*
X35011621Y-42974119D02*
X35112636Y-43075135D01*
X35112636Y-43075135D02*
X35280995Y-43176150D01*
X35280995Y-43176150D02*
X35382010Y-43209822D01*
X35382010Y-43209822D02*
X35516697Y-43209822D01*
X35516697Y-43209822D02*
X35651384Y-43142478D01*
X35651384Y-43142478D02*
X35819743Y-42974119D01*
X34102484Y-43277165D02*
X34237171Y-43142478D01*
X34237171Y-43142478D02*
X34338186Y-43108806D01*
X34338186Y-43108806D02*
X34405529Y-43108806D01*
X34405529Y-43108806D02*
X34573888Y-43142478D01*
X34573888Y-43142478D02*
X34742247Y-43243493D01*
X34742247Y-43243493D02*
X35011621Y-43512867D01*
X35011621Y-43512867D02*
X35045293Y-43613883D01*
X35045293Y-43613883D02*
X35045293Y-43681226D01*
X35045293Y-43681226D02*
X35011621Y-43782241D01*
X35011621Y-43782241D02*
X34876934Y-43916928D01*
X34876934Y-43916928D02*
X34775919Y-43950600D01*
X34775919Y-43950600D02*
X34708575Y-43950600D01*
X34708575Y-43950600D02*
X34607560Y-43916928D01*
X34607560Y-43916928D02*
X34439201Y-43748570D01*
X34439201Y-43748570D02*
X34405529Y-43647554D01*
X34405529Y-43647554D02*
X34405529Y-43580211D01*
X34405529Y-43580211D02*
X34439201Y-43479196D01*
X34439201Y-43479196D02*
X34573888Y-43344509D01*
X34573888Y-43344509D02*
X34674903Y-43310837D01*
X34674903Y-43310837D02*
X34742247Y-43310837D01*
X34742247Y-43310837D02*
X34843262Y-43344509D01*
%TO.C,SW2*%
X61241100Y-71914300D02*
X61241100Y-72295300D01*
X61241100Y-75343300D02*
X61241100Y-75724300D01*
X61622100Y-75724300D02*
X61241100Y-75724300D01*
X63781100Y-69374300D02*
X72671100Y-69374300D01*
X65126938Y-75724300D02*
X63400100Y-75724300D01*
X72671100Y-69374300D02*
X72671100Y-69755300D01*
X72671100Y-72803300D02*
X72671100Y-73819300D01*
X72671100Y-73819300D02*
X67591100Y-73819300D01*
X63781100Y-69374300D02*
G75*
G03*
X61241100Y-71914300I1J-2540001D01*
G01*
X67591100Y-73819300D02*
G75*
G03*
X65126939Y-75743260I0J-2539999D01*
G01*
%TO.C,SW3*%
X80291100Y-71914300D02*
X80291100Y-72295300D01*
X80291100Y-75343300D02*
X80291100Y-75724300D01*
X80672100Y-75724300D02*
X80291100Y-75724300D01*
X82831100Y-69374300D02*
X91721100Y-69374300D01*
X84176938Y-75724300D02*
X82450100Y-75724300D01*
X91721100Y-69374300D02*
X91721100Y-69755300D01*
X91721100Y-72803300D02*
X91721100Y-73819300D01*
X91721100Y-73819300D02*
X86641100Y-73819300D01*
X82831100Y-69374300D02*
G75*
G03*
X80291100Y-71914300I1J-2540001D01*
G01*
X86641100Y-73819300D02*
G75*
G03*
X84176939Y-75743260I0J-2539999D01*
G01*
%TO.C,SW4*%
X99341100Y-71914300D02*
X99341100Y-72295300D01*
X99341100Y-75343300D02*
X99341100Y-75724300D01*
X99722100Y-75724300D02*
X99341100Y-75724300D01*
X101881100Y-69374300D02*
X110771100Y-69374300D01*
X103226938Y-75724300D02*
X101500100Y-75724300D01*
X110771100Y-69374300D02*
X110771100Y-69755300D01*
X110771100Y-72803300D02*
X110771100Y-73819300D01*
X110771100Y-73819300D02*
X105691100Y-73819300D01*
X101881100Y-69374300D02*
G75*
G03*
X99341100Y-71914300I1J-2540001D01*
G01*
X105691100Y-73819300D02*
G75*
G03*
X103226939Y-75743260I0J-2539999D01*
G01*
%TO.C,SW1*%
X42191100Y-71914300D02*
X42191100Y-72295300D01*
X42191100Y-75343300D02*
X42191100Y-75724300D01*
X42572100Y-75724300D02*
X42191100Y-75724300D01*
X44731100Y-69374300D02*
X53621100Y-69374300D01*
X46076938Y-75724300D02*
X44350100Y-75724300D01*
X53621100Y-69374300D02*
X53621100Y-69755300D01*
X53621100Y-72803300D02*
X53621100Y-73819300D01*
X53621100Y-73819300D02*
X48541100Y-73819300D01*
X44731100Y-69374300D02*
G75*
G03*
X42191100Y-71914300I1J-2540001D01*
G01*
X48541100Y-73819300D02*
G75*
G03*
X46076939Y-75743260I0J-2539999D01*
G01*
D11*
%TO.C,D2*%
X45416100Y-40164300D02*
X45416100Y-42449300D01*
X43946100Y-40164300D02*
X45416100Y-40164300D01*
X43946100Y-42449300D02*
X43946100Y-40164300D01*
D12*
%TO.C,LED3*%
X88367200Y-79386000D02*
X84912800Y-79386000D01*
X84912800Y-82434000D02*
X88367200Y-82434000D01*
D11*
%TO.C,D3*%
X48006100Y-40164300D02*
X48006100Y-42449300D01*
X46536100Y-40164300D02*
X48006100Y-40164300D01*
X46536100Y-42449300D02*
X46536100Y-40164300D01*
%TO.C,D8*%
X56601100Y-90199300D02*
X49301100Y-90199300D01*
X56601100Y-84699300D02*
X49301100Y-84699300D01*
X49301100Y-90199300D02*
X49301100Y-89049300D01*
D13*
%TO.C,U1*%
X73751100Y-60109300D02*
X55951100Y-60109300D01*
X73751100Y-58579300D02*
X73751100Y-60109300D01*
X73751100Y-40609300D02*
X73751100Y-39109300D01*
X73751100Y-39109300D02*
X69351100Y-39109300D01*
X69351100Y-39109300D02*
X69351100Y-37709300D01*
X69351100Y-37685300D02*
X60356100Y-37685300D01*
X60351100Y-39109300D02*
X55951100Y-39109300D01*
X60351100Y-37709300D02*
X60351100Y-39109300D01*
X55951100Y-60109300D02*
X55951100Y-58579300D01*
X55951100Y-39109300D02*
X55951100Y-40609300D01*
D14*
X75180100Y-41718300D02*
G75*
G03*
X74980100Y-41718300I-100000J0D01*
G01*
X74980100Y-41718300D02*
G75*
G03*
X75180100Y-41718300I100000J0D01*
G01*
D11*
%TO.C,D9*%
X83101100Y-90249300D02*
X75801100Y-90249300D01*
X83101100Y-84749300D02*
X75801100Y-84749300D01*
X75801100Y-90249300D02*
X75801100Y-89099300D01*
%TO.C,D1*%
X42826100Y-40164300D02*
X42826100Y-42449300D01*
X41356100Y-40164300D02*
X42826100Y-40164300D01*
X41356100Y-42449300D02*
X41356100Y-40164300D01*
%TO.C,R1*%
X56227500Y-62504724D02*
X56227500Y-61995276D01*
X57272500Y-62504724D02*
X57272500Y-61995276D01*
%TO.C,D5*%
X53186100Y-40164300D02*
X53186100Y-42449300D01*
X51716100Y-40164300D02*
X53186100Y-40164300D01*
X51716100Y-42449300D02*
X51716100Y-40164300D01*
%TO.C,D10*%
X107601100Y-90249300D02*
X100301100Y-90249300D01*
X107601100Y-84749300D02*
X100301100Y-84749300D01*
X100301100Y-90249300D02*
X100301100Y-89099300D01*
D12*
%TO.C,LED2*%
X69317200Y-79376000D02*
X65862800Y-79376000D01*
X65862800Y-82424000D02*
X69317200Y-82424000D01*
D11*
%TO.C,D7*%
X41662707Y-61411918D02*
X43552086Y-68463177D01*
X36350114Y-62835423D02*
X38239493Y-69886682D01*
X43552086Y-68463177D02*
X42441271Y-68760819D01*
%TO.C,D4*%
X50596100Y-40164300D02*
X50596100Y-42449300D01*
X49126100Y-40164300D02*
X50596100Y-40164300D01*
X49126100Y-42449300D02*
X49126100Y-40164300D01*
D12*
%TO.C,LED4*%
X107417200Y-79386000D02*
X103962800Y-79386000D01*
X103962800Y-82434000D02*
X107417200Y-82434000D01*
%TO.C,LED1*%
X50267200Y-79386000D02*
X46812800Y-79386000D01*
X46812800Y-82434000D02*
X50267200Y-82434000D01*
D11*
%TO.C,D6*%
X41976583Y-45012904D02*
X36814704Y-50174783D01*
X38087496Y-41123817D02*
X32925617Y-46285696D01*
X36814704Y-50174783D02*
X36001531Y-49361611D01*
%TD*%
M02*
